<?xml version="1.0" encoding="UTF-8" standalone="no"?>
<!DOCTYPE svg PUBLIC "-//W3C//DTD SVG 1.1//EN" "http://www.w3.org/Graphics/SVG/1.1/DTD/svg11.dtd">
<svg xmlns="http://www.w3.org/2000/svg" version="1.1" viewBox="0 0 441 114" width="441.0pt" height="114.0pt">
<path d="M 0.00 0.00 L 317.46 0.00 C 316.71 3.45 317.02 6.72 317.01 10.21 C 331.07 10.26 345.12 10.24 359.18 10.22 C 359.18 6.83 359.26 3.39 359.07 0.00 L 441.00 0.00 L 441.00 45.50 C 440.60 38.49 437.95 32.02 432.86 27.13 C 423.23 17.63 405.89 17.68 396.47 27.47 C 388.74 34.78 386.62 46.47 390.86 56.18 C 393.88 63.37 400.48 68.96 408.01 70.92 C 419.48 74.06 432.45 68.70 437.84 57.99 C 433.72 57.89 429.59 57.90 425.47 57.97 C 422.28 60.20 418.99 61.90 414.98 61.82 C 407.81 62.04 402.21 57.33 399.36 51.04 C 413.03 50.95 426.70 51.03 440.37 50.99 C 440.59 49.79 440.80 48.59 441.00 47.38 L 441.00 114.00 L 0.00 114.00 L 0.00 47.18 C 0.68 54.61 3.87 61.58 9.89 66.14 C 19.15 73.71 32.83 73.53 42.31 66.43 C 42.29 68.21 42.28 70.00 42.28 71.78 C 45.60 71.81 48.91 71.79 52.23 71.80 C 52.24 54.49 52.24 37.18 52.23 19.87 C 48.92 19.87 45.62 19.87 42.31 19.87 C 42.29 21.70 42.29 23.52 42.30 25.34 C 35.34 20.36 26.48 18.47 18.25 21.23 C 8.17 24.11 1.27 33.25 0.00 43.50 L 0.00 0.00 Z" fill="#ffffff" />
<path d="M 317.46 0.00 L 359.07 0.00 C 359.26 3.39 359.18 6.83 359.18 10.22 C 345.12 10.24 331.07 10.26 317.01 10.21 C 317.02 6.72 316.71 3.45 317.46 0.00 Z" fill="#000000" />
<path d="M 42.30 25.34 C 42.29 23.52 42.29 21.70 42.31 19.87 C 45.62 19.87 48.92 19.87 52.23 19.87 C 52.24 37.18 52.24 54.49 52.23 71.80 C 48.91 71.79 45.60 71.81 42.28 71.78 C 42.28 70.00 42.29 68.21 42.31 66.43 C 32.83 73.53 19.15 73.71 9.89 66.14 C 3.87 61.58 0.68 54.61 0.00 47.18 L 0.00 43.50 C 1.27 33.25 8.17 24.11 18.25 21.23 C 26.48 18.47 35.34 20.36 42.30 25.34 Z" fill="#000000" />
<path d="M 81.84 19.87 C 85.23 19.87 88.61 19.86 92.00 19.88 C 92.00 21.69 91.99 23.51 91.99 25.32 C 99.19 19.92 108.82 18.44 117.25 21.65 C 127.02 25.09 133.64 34.74 134.13 44.98 C 134.47 50.65 132.32 56.49 129.13 61.11 C 124.06 68.01 115.59 72.17 107.01 71.76 C 101.49 71.68 96.44 69.64 91.98 66.49 C 92.02 81.79 91.99 97.08 91.99 112.38 C 88.61 112.42 85.22 112.41 81.83 112.40 C 81.81 81.56 81.79 50.71 81.84 19.87 Z" fill="#000000" />
<path d="M 183.18 19.97 C 190.24 19.67 197.71 22.17 202.80 27.17 C 208.43 32.62 211.32 40.18 210.67 48.01 C 210.22 55.29 206.30 62.10 200.51 66.46 C 190.85 74.11 175.98 73.46 167.05 64.95 C 157.40 56.44 155.73 40.82 163.60 30.59 C 168.24 24.17 175.37 20.63 183.18 19.97 Z" fill="#000000" />
<path d="M 279.10 26.88 C 286.83 33.71 289.52 45.15 285.93 54.78 C 284.24 59.81 280.85 63.46 276.97 66.91 C 281.39 70.47 284.90 74.91 286.42 80.46 C 289.16 89.36 286.63 99.47 279.99 106.01 C 270.78 115.54 254.45 116.35 244.47 107.52 C 234.40 99.23 232.56 84.25 239.55 73.40 C 242.31 75.32 245.11 77.00 248.19 78.37 C 247.04 80.88 245.82 83.18 245.45 85.96 C 244.56 93.00 248.80 100.12 255.44 102.65 C 262.97 105.87 272.33 102.19 275.81 94.83 C 279.78 87.35 276.44 77.80 269.13 73.86 C 264.16 71.04 259.29 72.39 254.06 70.75 C 243.64 67.92 235.52 57.87 235.40 46.99 C 234.57 36.61 241.04 26.48 250.48 22.34 C 259.98 18.00 271.50 19.65 279.10 26.88 Z" fill="#000000" />
<path d="M 356.49 27.52 C 362.80 33.59 365.09 42.34 363.96 50.90 C 350.21 51.15 336.46 50.89 322.72 51.04 C 325.57 57.63 331.60 62.36 339.01 61.79 C 342.97 61.84 345.57 59.71 348.93 58.12 C 352.96 57.66 357.10 57.97 361.15 58.01 C 358.58 63.03 354.35 66.99 349.22 69.32 C 339.98 73.74 328.37 72.16 320.77 65.24 C 314.50 59.93 311.25 51.12 312.05 43.00 C 313.08 35.06 317.73 27.73 324.63 23.62 C 334.54 17.86 348.43 19.06 356.49 27.52 Z" fill="#000000" />
<path d="M 432.86 27.13 C 437.95 32.02 440.60 38.49 441.00 45.50 L 441.00 47.38 C 440.80 48.59 440.59 49.79 440.37 50.99 C 426.70 51.03 413.03 50.95 399.36 51.04 C 402.21 57.33 407.81 62.04 414.98 61.82 C 418.99 61.90 422.28 60.20 425.47 57.97 C 429.59 57.90 433.72 57.89 437.84 57.99 C 432.45 68.70 419.48 74.06 408.01 70.92 C 400.48 68.96 393.88 63.37 390.86 56.18 C 386.62 46.47 388.74 34.78 396.47 27.47 C 405.89 17.68 423.23 17.63 432.86 27.13 Z" fill="#000000" />
<path d="M 21.50 30.59 C 23.28 30.06 25.18 29.99 27.02 30.03 C 34.92 30.11 41.87 37.15 42.18 45.01 C 42.93 54.01 34.94 62.12 26.00 61.88 C 17.87 61.97 10.60 55.18 10.18 47.04 C 9.38 39.61 14.55 32.79 21.50 30.59 Z" fill="#ffffff" />
<path d="M 103.44 30.54 C 108.41 29.39 113.65 29.90 117.67 33.26 C 124.71 38.26 126.14 48.94 120.69 55.63 C 116.31 61.19 108.80 63.46 102.15 60.81 C 95.39 58.03 91.17 51.34 92.03 43.98 C 92.56 37.62 97.54 32.47 103.44 30.54 Z" fill="#ffffff" />
<path d="M 179.51 30.75 C 182.19 29.87 185.20 29.86 187.98 30.24 C 196.51 32.03 202.52 40.96 200.34 49.53 C 198.66 56.89 191.52 62.31 183.97 61.87 C 176.69 61.66 170.38 56.12 168.92 49.04 C 167.08 41.19 172.10 33.37 179.51 30.75 Z" fill="#ffffff" />
<path d="M 256.51 30.65 C 259.22 29.86 262.21 29.86 264.97 30.31 C 272.12 31.94 277.56 38.62 277.50 46.00 C 277.49 54.36 270.39 61.66 262.03 61.87 C 253.85 62.35 246.51 56.05 245.47 47.97 C 244.25 40.26 249.32 33.11 256.51 30.65 Z" fill="#ffffff" />
<path d="M 347.80 33.20 C 350.48 35.19 351.96 37.91 353.55 40.76 C 343.28 40.86 333.00 40.83 322.73 40.78 C 324.01 38.40 325.20 36.12 327.23 34.26 C 332.57 29.01 341.93 28.60 347.80 33.20 Z" fill="#ffffff" />
<path d="M 425.73 34.27 C 427.73 36.15 428.92 38.41 430.23 40.78 C 419.95 40.84 409.65 40.85 399.38 40.77 C 400.86 38.14 402.21 35.57 404.60 33.62 C 410.49 28.62 420.20 28.82 425.73 34.27 Z" fill="#ffffff" />
</svg>