<?xml version="1.0" encoding="UTF-8" standalone="no"?>
<!DOCTYPE svg PUBLIC "-//W3C//DTD SVG 1.1//EN" "http://www.w3.org/Graphics/SVG/1.1/DTD/svg11.dtd">
<svg xmlns="http://www.w3.org/2000/svg" version="1.1" viewBox="0 0 954 356" width="954.0pt" height="356.0pt">
<path d="M 0.00 0.00 L 954.00 0.00 L 954.00 356.00 L 0.00 356.00 L 0.00 0.00 Z" fill="#ffffff" />
<path d="M 132.52 23.90 C 139.37 24.61 146.08 26.28 152.96 26.95 C 155.85 27.22 158.68 27.65 161.49 28.41 C 160.49 37.94 160.28 47.49 160.13 57.06 C 160.09 59.31 159.51 60.87 158.21 62.70 C 157.62 59.75 157.41 56.76 157.04 53.78 C 155.98 46.81 152.25 40.91 146.35 37.04 C 142.56 35.32 139.10 33.25 135.06 32.12 C 120.39 28.00 104.47 28.10 89.83 32.26 C 79.25 35.54 71.30 41.47 65.12 50.66 C 56.79 63.43 55.57 79.17 56.18 94.01 C 56.99 106.06 60.95 118.36 68.10 128.17 C 76.92 141.24 90.72 150.67 106.07 154.22 C 114.88 156.14 124.12 156.25 133.04 155.20 C 139.93 154.49 147.01 151.82 152.24 147.21 C 156.44 142.06 158.74 135.31 160.05 128.87 C 160.67 129.29 161.29 129.71 161.91 130.14 C 160.96 138.38 159.95 146.97 157.50 154.91 C 156.54 157.91 154.20 159.32 151.27 160.02 C 139.86 163.01 127.75 163.76 115.99 163.33 C 106.23 163.12 96.38 161.65 87.05 158.74 C 73.02 154.01 59.79 144.72 51.68 132.21 C 45.19 123.12 41.83 111.79 40.68 100.77 C 38.93 86.85 41.64 72.95 47.39 60.25 C 49.43 55.75 52.27 52.11 55.04 48.02 C 62.77 38.12 73.27 30.89 85.22 27.03 C 100.54 22.42 116.72 22.09 132.52 23.90 Z" fill="#000000" />
<path d="M 362.65 43.65 C 369.12 47.39 373.89 54.44 379.23 59.77 C 385.80 66.22 391.89 73.10 398.22 79.78 C 407.64 89.09 416.62 98.67 425.72 108.28 C 430.77 113.22 435.58 118.33 440.30 123.58 C 445.14 129.08 450.50 133.56 455.01 139.33 C 455.42 139.50 455.83 139.68 456.25 139.86 C 455.95 113.54 455.06 87.36 454.64 61.03 C 454.28 57.08 454.91 51.53 450.78 49.33 C 447.20 47.96 442.87 47.98 439.11 47.30 C 440.35 46.53 441.42 45.84 442.94 45.85 C 449.00 45.54 454.94 46.44 461.02 46.19 C 465.93 46.00 470.79 45.63 475.70 45.98 C 473.26 48.31 470.29 48.15 467.15 48.88 C 465.35 51.04 464.09 53.02 464.15 55.97 C 463.86 71.63 464.11 87.33 464.03 103.00 C 463.52 120.65 463.91 138.34 463.76 156.00 C 463.72 157.73 463.57 159.45 463.43 161.17 C 463.01 161.57 462.59 161.97 462.17 162.37 C 455.31 157.61 449.64 151.12 443.36 145.62 C 437.53 139.85 431.58 134.16 426.10 128.05 C 420.84 122.60 415.30 117.42 410.12 111.90 C 405.44 106.56 400.13 101.86 395.46 96.52 C 391.06 91.57 386.49 86.87 381.82 82.20 C 377.23 77.66 373.30 72.24 368.29 68.19 C 368.12 75.11 368.53 82.07 368.77 89.00 C 369.05 104.35 369.57 119.66 370.01 135.00 C 370.29 142.29 369.70 149.34 372.51 156.10 C 373.66 156.76 374.80 157.44 375.94 158.13 C 378.87 158.61 381.80 158.93 384.76 159.18 C 384.99 159.71 385.21 160.23 385.44 160.76 C 376.92 161.54 368.54 159.87 360.05 160.71 C 355.71 160.91 351.64 161.48 347.39 160.23 C 350.87 158.77 354.70 158.51 358.39 157.48 C 360.51 152.80 360.39 148.03 360.56 143.01 C 360.56 112.68 360.58 82.33 360.56 52.00 C 360.71 48.87 360.31 46.09 362.65 43.65 Z" fill="#000000" />
<path d="M 625.01 43.90 C 639.77 44.44 654.13 48.97 665.59 58.47 C 682.04 72.17 687.57 95.51 682.15 115.79 C 678.34 130.73 668.88 143.18 656.48 152.13 C 663.10 155.61 669.85 158.85 676.50 162.30 C 684.47 166.16 692.21 170.43 700.44 173.72 C 717.45 180.95 736.42 186.35 755.00 186.36 C 762.82 186.25 770.65 185.06 778.19 182.98 C 782.05 181.79 785.70 180.31 789.81 180.12 C 788.34 181.96 786.95 182.85 784.82 183.64 C 767.85 190.45 749.13 193.94 730.85 192.64 C 708.81 190.56 689.53 181.83 670.32 171.47 C 665.97 168.56 661.09 166.85 656.67 164.08 C 653.17 161.90 649.35 160.13 645.62 158.39 C 638.41 161.78 629.86 162.61 621.99 162.92 C 608.36 162.96 593.00 159.64 582.14 150.95 C 570.41 142.19 562.72 128.34 560.27 114.02 C 555.76 90.73 567.60 65.10 587.86 52.92 C 598.73 45.91 612.25 43.47 625.01 43.90 Z" fill="#000000" />
<path d="M 228.76 46.34 C 225.21 48.21 219.03 47.39 216.73 50.78 C 215.34 54.20 215.35 58.32 215.18 61.98 C 215.17 82.98 215.18 104.00 215.18 125.00 C 215.13 130.34 215.30 135.67 215.60 141.00 C 215.91 144.32 216.12 148.38 217.84 151.31 C 219.92 154.10 224.81 154.67 227.99 155.06 C 237.45 155.68 247.27 156.51 256.33 153.40 C 260.38 149.63 262.27 145.27 263.69 140.02 C 264.09 140.43 264.49 140.84 264.88 141.25 C 264.60 147.05 263.92 153.10 262.21 158.65 C 261.37 161.25 259.43 161.09 257.08 161.38 C 241.32 161.73 225.64 160.91 210.00 160.41 C 202.63 160.16 196.30 161.88 189.46 160.29 C 192.43 158.96 195.58 158.39 198.66 157.31 C 201.23 150.27 200.97 143.37 201.22 136.00 C 201.21 111.00 201.24 85.98 201.20 60.98 C 200.96 57.16 201.27 51.85 197.81 49.32 C 194.64 47.43 190.22 48.23 186.69 46.98 C 188.42 46.36 190.11 45.80 191.99 45.82 C 198.32 45.70 204.66 46.10 211.00 45.98 C 216.81 46.03 223.06 45.33 228.76 46.34 Z" fill="#000000" />
<path d="M 535.71 46.29 C 532.58 48.85 528.51 47.01 526.13 50.12 C 523.81 52.56 524.27 56.88 524.07 60.00 C 523.96 84.33 524.07 108.67 524.03 133.00 C 524.08 139.80 524.10 146.86 525.32 153.56 C 525.58 155.65 527.38 157.66 529.45 158.10 C 532.89 158.82 536.43 158.86 539.86 159.70 C 535.93 161.66 532.22 160.92 528.02 160.84 C 522.34 160.81 516.78 160.09 511.10 160.65 C 506.81 160.72 502.07 161.83 498.21 159.68 C 500.78 158.97 503.46 158.74 506.02 158.01 C 507.78 156.35 508.79 153.81 509.08 151.44 C 509.86 143.63 509.89 135.83 509.97 128.00 C 509.95 105.33 510.01 82.65 509.95 59.99 C 509.75 56.81 509.89 51.97 507.29 49.67 C 504.74 47.74 500.66 47.99 497.61 47.04 C 502.16 44.90 507.99 46.14 512.96 46.16 C 520.52 46.69 528.27 45.09 535.71 46.29 Z" fill="#000000" />
<path d="M 909.66 44.67 C 907.80 51.31 908.30 58.10 906.89 64.78 C 904.12 61.63 905.61 55.96 901.27 54.04 C 894.97 51.75 887.57 52.16 880.96 51.96 C 876.90 51.77 872.85 51.75 868.79 51.79 C 868.77 64.86 868.80 77.93 868.76 91.00 C 868.77 93.09 868.91 95.17 869.11 97.24 C 876.08 97.17 883.05 97.28 890.02 97.19 C 893.91 97.04 898.16 97.04 901.92 95.97 C 903.72 95.05 905.26 93.61 906.93 92.47 C 906.32 98.00 905.29 103.42 905.20 109.00 C 905.02 110.97 905.25 113.36 903.72 114.87 C 902.99 112.33 902.61 109.69 902.13 107.11 C 899.68 105.20 897.21 103.69 894.00 103.55 C 885.64 102.84 877.18 102.74 868.79 102.79 C 868.76 116.19 868.81 129.60 868.75 143.00 C 868.74 145.67 868.94 148.35 869.98 150.85 C 873.38 155.14 877.85 155.07 882.89 155.47 C 889.52 155.68 896.82 155.84 903.26 154.06 C 906.68 153.01 908.42 150.21 910.00 147.22 C 910.56 144.61 911.15 142.27 913.04 140.28 C 913.32 146.98 912.06 154.27 909.90 160.61 C 908.29 161.02 906.70 161.42 905.02 161.44 C 897.32 161.64 889.67 161.19 881.98 161.15 C 872.88 161.03 864.21 159.91 855.10 160.67 C 850.75 160.85 846.91 161.71 842.74 159.89 C 845.44 158.92 848.32 158.77 851.04 157.95 C 852.99 156.49 853.46 153.25 853.81 151.01 C 854.61 144.73 854.58 138.32 854.81 132.00 C 854.80 109.66 854.84 87.32 854.80 64.98 C 854.56 60.35 854.98 54.80 852.92 50.61 C 852.65 50.06 852.27 49.70 851.77 49.52 C 848.37 48.00 844.24 48.05 840.60 47.05 C 843.12 45.97 845.26 45.68 848.00 45.80 C 864.31 46.59 880.67 46.06 897.00 46.24 C 901.32 46.42 905.46 45.59 909.66 44.67 Z" fill="#000000" />
<path d="M 288.95 45.85 C 294.29 45.60 299.63 46.36 305.00 46.23 C 310.03 46.22 315.12 45.60 320.14 45.92 L 323.09 47.15 C 319.43 47.70 315.97 48.21 312.76 50.16 C 311.72 54.56 311.30 58.49 311.40 63.00 C 311.07 71.34 311.20 79.66 311.18 88.00 C 311.27 103.66 310.96 119.35 311.43 135.00 C 311.47 141.96 311.48 149.56 313.51 156.26 C 317.43 158.75 321.44 158.90 325.93 159.28 C 326.08 159.78 326.24 160.27 326.39 160.77 C 316.88 161.57 307.51 159.86 298.05 160.71 C 293.75 160.83 289.78 161.47 285.57 160.09 C 288.78 158.99 292.06 158.28 295.16 156.85 C 297.93 147.20 296.90 137.87 297.55 128.02 C 297.56 108.00 297.61 87.98 297.54 67.96 C 297.13 62.26 297.59 56.72 296.17 51.12 C 292.91 48.08 289.27 47.99 285.10 47.18 C 286.35 46.53 287.49 45.86 288.95 45.85 Z" fill="#000000" />
<path d="M 705.99 45.81 C 713.34 45.80 720.64 46.57 728.01 46.11 C 732.73 46.04 736.88 45.06 741.35 46.99 C 738.07 47.85 734.75 48.39 731.55 49.56 C 729.37 54.66 729.47 60.39 729.18 65.98 C 729.16 80.99 729.19 96.00 729.18 111.00 C 729.42 119.94 729.64 128.81 732.93 137.22 C 735.09 143.27 739.46 147.64 744.35 151.60 C 750.96 156.97 760.67 157.87 768.82 156.91 C 778.26 155.90 788.36 150.34 792.74 141.66 C 798.33 131.44 798.22 120.36 798.58 109.00 C 798.41 91.31 798.95 73.59 798.16 55.93 C 798.12 53.62 797.22 51.67 796.40 49.57 C 792.44 47.88 787.95 48.47 784.24 46.40 C 790.60 45.25 797.51 46.09 804.00 45.99 C 809.74 46.11 815.20 45.39 820.72 46.25 C 817.69 48.21 813.94 48.23 810.81 50.20 C 809.96 53.78 809.14 57.28 809.17 60.98 C 809.17 77.65 809.20 94.34 809.17 111.01 C 808.85 120.53 807.71 131.05 803.63 139.77 C 800.42 147.00 794.59 152.78 787.82 156.74 C 777.39 162.76 764.74 163.94 752.98 162.36 C 743.98 161.43 735.12 157.68 728.35 151.64 C 721.65 145.18 718.24 136.75 716.54 127.73 C 714.71 115.69 715.38 102.83 715.18 90.98 C 714.69 80.00 715.22 68.98 714.87 58.00 C 714.65 55.51 714.54 51.47 712.31 49.82 C 708.96 47.96 704.41 48.14 700.68 47.06 C 702.41 46.34 704.08 45.74 705.99 45.81 Z" fill="#000000" />
<path d="M 634.68 51.28 C 643.75 54.30 651.88 59.72 657.39 67.62 C 665.27 78.12 668.59 92.03 668.27 105.00 C 668.56 117.51 666.10 131.98 658.02 141.97 C 650.59 152.15 637.43 157.67 625.00 157.58 C 616.38 157.40 607.14 155.40 599.82 150.69 C 585.21 141.65 576.90 124.75 575.30 108.00 C 574.56 96.77 574.71 85.92 578.97 75.33 C 583.15 64.10 592.53 55.04 604.06 51.62 C 613.95 48.69 624.77 48.09 634.68 51.28 Z" fill="#ffffff" />
<path d="M 494.85 187.24 C 494.67 190.08 494.29 192.90 494.09 195.74 C 493.15 195.79 492.21 195.84 491.27 195.89 C 490.94 194.71 490.62 193.54 490.29 192.37 C 487.12 192.19 483.94 192.18 480.76 192.17 C 480.79 196.53 480.80 200.90 480.75 205.27 C 485.32 205.38 489.49 205.21 493.91 203.92 C 493.71 207.04 493.41 210.15 493.11 213.25 C 492.35 213.49 491.58 213.72 490.81 213.96 C 490.57 212.68 490.34 211.41 490.11 210.13 C 486.99 209.78 483.88 209.75 480.75 209.71 C 480.85 214.96 480.56 220.04 481.10 225.18 C 484.90 225.44 488.50 225.85 492.20 224.64 C 492.93 222.63 493.69 221.11 495.16 219.52 C 495.82 221.77 495.95 223.92 495.93 226.25 C 495.30 227.43 494.68 228.62 494.05 229.80 C 486.42 230.17 478.77 229.55 471.12 229.80 C 470.48 229.12 469.83 228.44 469.18 227.76 C 470.49 227.22 471.80 226.69 473.12 226.17 C 473.80 220.10 473.50 214.10 473.55 208.00 C 473.51 202.18 473.76 196.51 473.25 190.71 C 472.19 190.75 471.14 190.78 470.09 190.82 C 469.58 190.11 469.07 189.40 468.56 188.69 C 469.23 188.30 469.91 187.91 470.58 187.52 C 478.72 187.43 486.73 188.22 494.85 187.24 Z" fill="#000000" />
<path d="M 525.81 187.89 C 525.94 190.65 526.15 193.23 525.67 195.97 C 525.03 196.54 524.23 196.89 523.26 197.03 C 522.84 195.79 522.49 194.54 522.19 193.26 C 518.42 190.54 514.56 190.90 510.44 192.58 C 510.22 194.64 509.33 196.63 510.42 198.54 C 511.82 201.10 515.03 202.86 517.34 204.56 C 520.53 206.67 523.19 209.32 525.73 212.14 C 526.70 215.35 527.79 218.20 526.94 221.61 C 526.00 226.08 521.20 229.28 516.99 230.23 C 512.30 230.83 506.93 230.66 502.70 228.31 C 502.37 225.48 502.64 222.44 502.76 219.59 C 503.51 219.14 504.26 218.69 505.01 218.24 C 505.93 220.49 506.21 223.95 508.72 224.98 C 511.55 226.42 515.27 226.23 518.15 225.01 C 519.51 224.28 520.28 222.47 521.17 221.26 C 520.47 219.06 520.41 217.04 518.55 215.46 C 514.11 211.38 508.58 208.40 504.95 203.12 C 503.13 199.87 503.75 196.83 504.25 193.36 C 505.05 192.29 505.81 191.21 506.55 190.10 C 512.53 185.80 518.98 186.46 525.81 187.89 Z" fill="#000000" />
<path d="M 419.12 188.04 C 423.24 187.06 427.77 187.74 432.00 187.56 C 440.55 187.62 448.56 187.05 455.78 192.51 C 464.15 198.62 465.04 211.24 459.92 219.70 C 456.72 224.98 451.45 228.87 445.26 229.73 C 437.07 230.98 428.68 229.36 420.35 229.78 C 420.29 228.83 420.23 227.88 420.17 226.92 C 421.22 226.74 422.27 226.56 423.32 226.39 C 424.16 220.36 423.67 214.09 423.80 208.00 C 423.69 202.48 424.05 196.91 423.64 191.41 C 422.29 191.03 420.94 190.69 419.57 190.38 C 419.39 189.61 419.24 188.83 419.12 188.04 Z" fill="#000000" />
<path d="M 431.20 192.18 C 438.50 191.39 445.86 192.33 451.11 197.92 C 456.21 203.57 455.95 211.66 453.79 218.52 C 452.09 220.47 450.95 222.46 448.54 223.63 C 443.26 226.56 437.05 226.47 431.38 224.83 C 430.83 214.02 430.96 203.00 431.20 192.18 Z" fill="#ffffff" />
<path d="M 40.74 211.51 C 150.15 211.61 259.59 211.53 369.00 211.55 C 373.55 211.80 377.47 210.51 381.38 213.41 C 380.73 214.53 380.08 215.64 379.43 216.75 C 266.62 216.86 153.72 216.67 40.92 216.85 C 40.17 215.96 39.55 215.01 39.07 214.00 C 39.61 213.15 40.16 212.32 40.74 211.51 Z" fill="#000000" />
<path d="M 572.74 211.51 C 684.25 211.64 796.41 211.51 908.04 211.55 C 909.75 211.68 911.24 211.46 912.48 212.89 C 913.41 214.04 912.59 216.75 910.79 216.63 C 906.90 217.01 902.92 216.70 899.00 216.78 C 790.33 216.83 681.59 216.68 572.93 216.85 C 572.17 215.96 571.55 215.01 571.07 214.00 C 571.61 213.15 572.16 212.32 572.74 211.51 Z" fill="#000000" />
<path d="M 791.26 232.42 C 793.28 234.89 794.53 237.72 795.73 240.64 C 795.19 240.95 794.65 241.25 794.11 241.55 C 786.11 241.51 779.70 244.53 772.28 246.73 C 772.33 245.65 772.33 244.54 772.51 243.47 C 774.51 241.53 777.32 240.26 779.65 238.73 C 783.43 236.30 786.94 233.86 791.26 232.42 Z" fill="#000000" />
<path d="M 82.05 239.13 C 93.25 237.96 104.93 240.07 115.86 242.47 C 115.13 249.29 115.42 256.13 114.72 262.95 C 113.72 263.33 112.73 263.71 111.73 264.09 C 110.59 259.20 110.60 254.72 107.24 250.65 C 106.18 250.03 105.13 249.40 104.09 248.74 C 97.80 245.91 91.90 244.85 85.02 245.11 C 77.81 245.33 69.41 246.74 64.15 252.13 C 57.33 258.35 54.75 268.02 55.01 277.00 C 54.80 285.57 56.88 294.01 62.18 300.87 C 68.62 309.71 79.20 315.04 90.10 315.35 C 95.26 315.54 101.86 315.36 106.27 312.36 C 110.13 309.80 110.93 305.99 112.29 301.87 C 112.58 300.08 114.24 300.39 115.61 299.72 C 116.20 304.31 115.22 308.47 114.43 312.98 C 114.04 314.91 113.67 317.09 112.61 318.77 C 105.26 322.98 96.12 321.52 88.00 321.79 C 82.00 322.03 76.08 321.40 70.40 319.36 C 59.92 315.86 51.10 307.58 46.66 297.50 C 42.84 287.94 42.16 276.93 45.30 267.07 C 46.99 260.51 50.83 255.23 55.24 250.24 C 62.11 242.97 72.32 239.87 82.05 239.13 Z" fill="#000000" />
<path d="M 537.02 240.22 C 546.32 240.85 555.68 240.42 565.00 240.57 C 568.68 240.70 572.23 240.10 575.84 239.50 C 575.74 244.91 575.54 250.70 573.84 255.86 C 573.04 255.38 572.25 254.90 571.45 254.42 C 571.08 252.54 570.62 250.68 570.15 248.83 C 569.62 248.47 569.08 248.10 568.54 247.74 C 562.52 246.56 556.53 246.78 550.43 246.74 C 550.46 256.14 550.47 265.55 550.44 274.95 C 555.62 274.89 560.81 275.04 565.99 274.91 C 569.13 274.88 571.22 272.97 574.05 271.90 C 574.64 274.31 574.12 276.52 573.87 278.94 C 573.43 282.35 573.41 285.74 573.20 289.17 C 572.41 289.46 571.63 289.75 570.84 290.04 C 569.91 287.83 569.65 283.76 567.74 282.32 C 562.44 280.66 556.07 281.36 550.54 281.28 C 550.37 289.53 550.50 297.79 550.45 306.04 C 550.38 308.86 551.11 311.48 551.85 314.16 C 558.48 314.73 567.60 316.23 573.47 312.42 C 574.26 309.54 574.95 306.75 576.84 304.35 C 577.51 304.80 578.19 305.24 578.87 305.69 C 578.60 310.68 578.08 315.89 576.51 320.65 C 570.07 322.31 562.68 321.02 556.00 321.22 C 548.10 320.86 540.17 321.41 532.29 320.74 C 532.26 319.80 532.23 318.87 532.19 317.93 C 534.20 317.41 536.22 316.93 538.23 316.43 C 540.24 303.85 539.32 290.71 539.54 278.00 C 539.32 266.99 540.20 255.62 538.60 244.74 C 535.99 244.29 533.37 243.93 530.74 243.61 C 530.67 242.99 530.59 242.36 530.52 241.73 C 532.18 239.40 534.51 240.40 537.02 240.22 Z" fill="#000000" />
<path d="M 241.75 250.18 C 242.30 250.61 242.84 251.04 243.37 251.49 C 249.74 264.80 254.61 278.91 260.35 292.52 C 263.49 299.76 265.92 308.22 270.32 314.75 C 272.41 317.08 276.73 317.09 279.50 318.62 C 281.68 317.72 283.94 317.14 286.21 316.53 C 288.01 308.17 288.40 299.50 289.52 291.02 C 291.22 277.89 292.17 264.62 294.28 251.55 C 295.25 251.23 296.23 250.91 297.21 250.58 C 300.48 255.33 302.67 260.47 305.29 265.58 C 309.03 273.25 313.11 280.73 316.85 288.40 C 319.70 293.95 322.28 299.68 325.41 305.08 C 329.77 296.52 334.08 287.92 338.31 279.30 C 342.17 269.81 347.29 260.84 351.68 251.57 C 352.59 251.20 353.50 250.83 354.42 250.47 C 355.84 253.20 356.35 255.92 356.61 258.96 C 358.36 275.49 360.39 291.98 362.21 308.50 C 362.57 310.88 363.02 313.54 364.45 315.54 C 366.79 317.44 370.67 317.37 373.56 317.98 C 373.36 318.92 373.16 319.85 372.96 320.79 C 367.55 321.45 362.36 320.97 356.94 320.74 C 354.91 320.65 353.11 320.05 351.16 319.55 C 353.36 313.86 351.38 309.11 351.13 303.18 C 349.98 293.71 349.51 284.12 348.00 274.71 C 341.25 288.66 334.26 302.39 327.39 316.29 C 326.47 318.20 325.25 319.87 323.89 321.50 C 320.59 318.92 319.01 315.44 317.20 311.81 C 312.58 303.65 308.65 295.11 304.37 286.76 C 302.44 283.11 301.08 279.14 298.71 275.85 C 297.07 289.25 296.25 302.78 295.11 316.24 C 297.15 316.87 299.20 317.45 301.26 318.01 C 301.53 318.78 301.81 319.54 302.09 320.30 C 298.04 321.63 294.16 320.99 290.00 321.07 C 286.31 320.96 283.10 321.85 279.72 319.89 C 277.52 320.78 275.41 321.37 273.01 321.25 C 267.95 321.09 262.84 321.22 257.82 320.61 C 257.97 318.16 259.03 316.30 257.85 313.94 C 255.39 308.25 253.42 302.00 250.36 296.64 C 243.49 296.18 236.51 296.59 229.62 296.47 C 227.59 303.57 224.16 309.78 223.21 317.19 C 224.68 317.35 226.15 317.51 227.61 317.67 C 227.83 318.71 228.05 319.74 228.26 320.78 C 222.18 321.46 216.03 320.84 209.92 321.18 C 207.60 321.42 206.33 320.44 204.61 319.05 C 207.31 317.61 210.34 317.13 213.05 315.81 C 215.19 314.09 216.50 311.11 217.42 308.59 C 224.45 290.26 231.80 271.90 238.74 253.56 C 239.33 252.02 240.53 251.19 241.75 250.18 Z" fill="#000000" />
<path d="M 477.75 252.92 C 477.68 256.57 477.33 260.23 477.15 263.88 C 477.15 265.06 476.67 265.69 475.91 266.52 C 473.06 265.80 473.32 261.92 472.32 259.58 C 466.86 255.96 461.04 255.77 454.86 257.55 C 453.42 258.88 452.03 260.24 450.66 261.64 C 450.62 263.83 450.46 266.25 450.92 268.40 C 451.96 271.13 454.66 273.36 456.81 275.24 C 461.98 279.30 467.96 282.77 472.72 287.33 C 477.56 292.11 480.54 298.56 479.60 305.46 C 478.64 314.85 469.23 322.09 460.02 321.79 C 453.40 321.59 447.41 322.80 441.44 319.34 C 440.14 318.69 440.20 317.38 439.99 316.11 C 439.77 312.32 440.29 308.46 440.60 304.69 C 441.45 304.03 442.29 303.37 443.14 302.72 C 443.79 304.93 444.24 307.20 444.92 309.40 C 445.90 312.16 448.45 314.70 451.34 315.37 C 456.09 316.84 461.77 316.57 466.18 314.18 C 471.60 310.41 471.65 302.36 467.26 297.76 C 462.06 292.63 455.48 288.93 450.12 283.92 C 446.21 280.35 442.16 275.54 441.84 270.03 C 441.02 263.07 444.97 256.04 451.35 253.13 C 459.34 249.51 469.56 250.57 477.75 252.92 Z" fill="#000000" />
<path d="M 741.36 252.45 C 741.19 256.66 740.79 260.86 740.72 265.07 C 739.84 265.57 738.95 266.07 738.06 266.56 C 737.28 264.42 736.53 262.28 735.95 260.08 C 731.28 255.69 722.58 255.15 717.27 258.52 C 713.85 260.50 713.50 264.82 714.65 268.25 C 716.07 272.85 720.97 275.67 724.65 278.42 C 730.51 282.19 735.79 286.41 740.05 291.97 C 743.10 296.90 744.22 303.10 742.37 308.68 C 741.08 313.52 736.95 317.59 732.63 319.88 C 727.60 322.61 721.59 321.61 715.99 321.81 C 711.86 322.00 708.30 320.62 704.41 319.52 C 702.69 314.31 703.58 308.05 704.84 302.81 C 705.73 303.34 706.62 303.87 707.51 304.40 C 707.91 307.83 708.30 311.31 711.23 313.59 C 717.49 317.43 725.07 317.02 731.27 313.30 C 734.16 308.87 735.18 303.71 731.82 299.22 C 725.21 291.17 713.24 286.25 707.79 277.25 C 702.75 269.44 705.52 257.13 714.48 253.53 C 723.57 248.80 731.88 251.29 741.36 252.45 Z" fill="#000000" />
<path d="M 798.51 251.28 C 799.03 255.55 797.86 259.99 797.64 264.28 C 796.59 264.67 795.55 265.04 794.50 265.41 C 794.08 263.37 793.66 261.33 793.27 259.29 C 787.18 257.79 781.44 258.19 775.21 258.02 C 775.25 265.82 775.18 273.62 775.25 281.42 C 779.84 281.57 784.45 281.61 789.04 281.54 C 792.08 281.55 794.15 279.89 796.93 279.00 C 797.96 283.54 796.09 288.77 796.24 293.50 C 795.36 293.86 794.49 294.21 793.62 294.57 C 792.94 292.82 792.53 291.04 792.20 289.20 C 787.41 286.54 780.52 287.83 775.19 287.40 C 775.33 294.52 775.10 301.66 775.29 308.78 C 775.52 311.28 775.28 313.54 778.07 314.53 C 783.55 315.48 789.76 315.70 795.10 313.96 C 796.88 312.20 797.37 309.03 798.28 306.75 C 799.44 307.47 800.72 307.50 800.92 309.07 C 801.07 312.32 800.45 315.68 799.56 318.79 C 799.08 320.29 797.79 321.14 796.28 321.38 C 791.54 321.71 786.73 321.20 781.98 321.17 C 774.71 320.91 767.42 321.21 760.16 321.08 C 758.36 320.52 758.85 319.26 758.42 317.75 C 760.13 317.50 761.83 317.25 763.54 317.00 C 764.24 313.37 764.78 309.73 764.77 306.02 C 764.78 292.68 764.75 279.34 764.79 266.00 C 764.81 262.83 764.58 259.69 764.29 256.54 C 762.10 256.18 759.87 255.92 757.72 255.38 C 757.37 254.43 757.06 253.46 756.79 252.48 C 770.26 250.78 784.88 253.69 798.51 251.28 Z" fill="#000000" />
<path d="M 908.10 252.39 C 907.81 256.71 907.83 261.04 907.53 265.36 C 906.67 265.73 905.82 266.09 904.97 266.45 C 904.14 264.25 903.53 261.80 902.30 259.79 C 899.96 256.84 895.48 256.46 891.99 256.41 C 887.28 256.32 882.25 258.32 880.91 263.27 C 880.18 267.72 882.42 271.51 885.79 274.23 C 891.66 278.81 898.64 282.81 903.80 288.21 C 907.21 291.78 909.78 295.94 909.99 301.00 C 911.61 311.67 901.71 322.31 891.02 321.79 C 884.84 321.68 879.32 322.48 873.42 320.10 C 871.51 319.62 870.34 317.97 870.24 316.03 C 870.05 311.43 870.57 306.74 872.00 302.35 C 874.46 304.59 874.78 307.25 875.74 310.26 C 876.55 313.31 879.78 314.60 882.48 315.52 C 886.82 316.72 892.32 316.70 896.22 314.22 C 901.82 311.39 902.21 302.19 897.82 298.20 C 891.42 291.22 880.84 286.38 875.09 277.92 C 871.87 273.54 871.28 267.72 873.10 262.65 C 874.50 256.98 880.63 252.82 886.08 251.68 C 893.86 249.59 900.41 251.60 908.10 252.39 Z" fill="#000000" />
<path d="M 133.99 251.93 C 140.47 251.96 146.88 251.78 153.33 252.31 C 153.01 253.32 152.65 254.31 152.26 255.29 C 150.84 255.91 148.47 255.68 147.51 256.88 C 146.19 264.38 147.00 272.35 146.78 279.95 C 159.12 279.96 171.47 279.94 183.81 279.96 C 183.68 272.04 184.12 264.19 183.17 256.29 C 180.95 256.05 178.71 255.83 176.51 255.43 L 176.11 253.97 L 176.57 252.52 C 180.20 251.65 184.27 252.01 188.00 251.94 C 191.93 252.00 196.06 251.70 199.94 252.35 C 202.35 255.95 197.41 255.43 195.36 256.54 C 194.09 260.06 194.23 264.29 194.20 268.00 C 194.31 280.66 193.98 293.33 194.43 305.98 C 194.46 309.57 194.81 313.06 195.55 316.57 C 198.14 317.07 200.74 317.56 203.35 318.03 C 202.69 319.11 202.45 320.71 201.01 320.94 C 197.76 321.50 194.30 320.97 191.00 321.05 C 187.08 320.92 183.13 321.34 179.22 321.10 C 177.32 320.58 177.90 319.23 177.56 317.69 C 178.92 317.53 180.27 317.37 181.63 317.21 C 182.15 316.53 182.67 315.86 183.19 315.18 C 184.29 305.62 183.63 295.85 183.76 286.24 C 171.43 286.17 159.09 286.23 146.76 286.20 C 146.96 296.66 146.24 306.41 147.75 316.40 C 150.29 316.92 152.82 317.45 155.31 318.14 C 155.28 319.02 155.25 319.90 155.22 320.78 C 150.46 321.45 145.78 320.99 141.00 321.05 C 137.38 321.05 133.78 321.22 130.16 321.00 C 130.19 319.98 130.22 318.96 130.25 317.94 C 131.92 317.48 133.59 317.04 135.25 316.59 C 135.83 312.41 136.21 308.22 136.23 304.00 C 136.22 292.33 136.21 280.67 136.23 269.00 C 136.19 264.36 136.62 260.13 134.91 255.70 C 133.23 255.75 131.55 255.79 129.87 255.83 C 129.42 254.94 128.97 254.03 128.53 253.13 C 130.16 251.75 131.98 252.07 133.99 251.93 Z" fill="#000000" />
<path d="M 396.00 251.95 C 404.28 252.07 413.85 251.42 421.38 255.27 C 425.64 257.92 428.42 262.92 428.75 267.90 C 429.07 274.81 426.45 281.71 420.64 285.75 C 415.38 289.90 408.59 290.99 402.06 290.81 C 400.11 290.89 400.01 288.86 399.36 287.52 C 404.80 286.49 411.26 286.69 415.36 282.35 C 421.23 275.86 419.67 265.29 412.75 260.18 C 408.16 256.30 403.28 257.04 397.75 257.70 C 397.95 275.80 397.41 293.96 398.22 312.03 C 398.47 313.38 398.20 315.48 399.56 316.27 C 401.66 317.26 404.20 317.44 406.47 317.99 C 406.37 318.92 406.27 319.86 406.18 320.79 C 399.14 321.58 392.02 320.75 384.94 321.17 C 382.46 321.55 381.82 320.04 380.44 318.43 C 382.43 317.67 384.45 317.04 386.49 316.43 C 386.90 313.96 387.26 311.51 387.24 309.00 C 387.22 293.33 387.19 277.67 387.25 262.00 C 387.23 260.34 387.24 258.74 386.93 257.11 C 385.33 255.81 382.64 255.94 380.69 255.54 C 380.30 254.62 379.92 253.69 379.56 252.76 C 384.74 251.31 390.64 252.16 396.00 251.95 Z" fill="#000000" />
<path d="M 600.00 251.92 C 606.27 252.00 612.40 251.70 618.64 252.41 C 617.89 256.15 614.32 255.53 611.41 256.74 C 610.70 265.79 611.22 274.93 611.06 284.00 C 611.24 293.11 610.56 302.51 611.85 311.53 C 611.92 313.51 614.09 314.25 615.70 314.64 C 620.83 315.20 626.43 315.73 631.51 314.58 C 634.62 314.06 635.22 309.62 636.58 307.26 C 637.61 306.90 638.75 306.74 639.82 306.54 C 639.80 311.04 639.48 316.30 637.35 320.36 C 634.05 321.94 629.54 321.44 625.95 321.40 C 616.29 320.86 606.63 321.14 596.96 321.08 C 594.90 320.95 594.14 320.34 594.04 318.27 C 595.76 317.56 597.62 317.13 599.40 316.61 C 600.13 312.11 600.59 307.57 600.55 303.00 C 600.53 289.99 600.54 276.97 600.56 263.96 C 600.58 261.35 600.05 258.84 599.43 256.32 C 597.54 256.09 595.65 255.85 593.75 255.65 C 593.34 254.70 592.93 253.75 592.54 252.79 C 594.98 252.03 597.46 251.88 600.00 251.92 Z" fill="#000000" />
<path d="M 635.13 252.31 C 641.92 251.76 649.32 251.55 656.06 252.61 C 655.08 254.03 654.09 255.43 653.05 256.79 C 658.37 266.10 663.96 275.28 669.53 284.44 C 672.13 281.18 673.88 277.57 676.04 274.03 C 679.45 268.10 683.20 263.02 685.32 256.47 C 684.03 255.49 682.74 254.51 681.46 253.50 C 684.48 251.55 687.58 251.98 691.00 251.91 C 694.53 251.97 698.21 251.74 701.70 252.29 L 702.61 254.21 C 699.18 256.35 695.35 256.42 692.93 259.82 C 687.42 266.89 682.98 274.81 678.15 282.34 C 675.68 286.40 673.18 289.98 673.40 294.96 C 673.54 302.05 672.84 309.87 674.63 316.69 C 676.96 317.01 679.28 317.32 681.61 317.65 C 681.77 318.70 681.92 319.76 682.07 320.81 C 675.74 321.53 669.36 320.70 662.99 321.10 C 660.54 321.00 657.19 321.85 656.09 318.95 C 658.00 317.70 660.12 317.11 662.28 316.49 C 663.25 310.26 662.91 304.28 662.99 298.00 C 662.94 294.75 663.04 291.70 661.30 288.83 C 658.15 283.64 655.10 278.40 651.79 273.31 C 648.77 268.47 645.85 263.22 642.00 258.99 C 639.80 256.59 637.05 255.88 634.08 254.92 C 634.33 254.18 633.99 252.07 635.13 252.31 Z" fill="#000000" />
<path d="M 818.00 252.00 C 830.29 251.47 843.53 253.37 855.64 251.27 C 855.91 256.04 856.06 262.25 852.97 266.15 C 851.38 264.06 850.82 261.74 850.17 259.26 C 844.34 257.73 838.87 258.24 832.78 258.03 C 832.76 265.87 832.83 273.71 832.74 281.55 C 837.53 281.47 842.33 281.70 847.12 281.47 C 849.75 281.38 852.03 278.91 854.59 279.37 C 854.47 284.12 853.63 288.87 853.43 293.64 C 852.42 293.75 851.41 293.87 850.40 293.98 C 850.00 292.22 849.57 290.47 849.14 288.72 C 843.70 287.15 838.32 287.44 832.74 287.45 C 833.00 294.28 832.53 301.10 832.64 307.92 C 832.89 309.89 832.65 313.89 835.20 314.44 C 840.46 315.46 846.30 315.67 851.49 314.22 C 853.69 313.16 854.34 309.30 855.47 307.25 C 856.45 307.25 857.43 307.26 858.40 307.26 C 858.53 311.97 857.40 316.37 856.10 320.85 C 849.66 322.15 842.65 321.03 836.00 321.21 C 829.41 320.88 822.82 321.34 816.25 320.95 C 816.04 320.09 815.83 319.23 815.63 318.37 C 817.48 317.65 819.36 316.97 821.24 316.29 C 821.91 311.53 821.83 306.80 821.93 302.00 C 821.95 289.33 821.92 276.67 821.95 264.00 C 821.97 261.52 821.77 259.06 821.51 256.59 C 819.03 255.82 814.82 256.64 813.98 253.67 C 814.69 251.86 816.42 252.27 818.00 252.00 Z" fill="#000000" />
<path d="M 240.02 268.93 C 241.95 272.02 242.87 275.30 244.19 278.66 C 245.66 282.59 247.19 286.48 248.26 290.55 C 242.89 290.57 237.50 290.66 232.14 290.47 C 234.95 283.38 236.55 275.71 240.02 268.93 Z" fill="#ffffff" />
</svg>