<?xml version="1.0" encoding="UTF-8" standalone="no"?>
<!DOCTYPE svg PUBLIC "-//W3C//DTD SVG 1.1//EN" "http://www.w3.org/Graphics/SVG/1.1/DTD/svg11.dtd">
<svg xmlns="http://www.w3.org/2000/svg" version="1.1" viewBox="0 0 1182 887" width="1182.0pt" height="887.0pt">
<path d="M 0.00 0.00 L 1182.00 0.00 L 1182.00 887.00 L 0.00 887.00 L 0.00 0.00 Z" fill="#ffffff" />
<path d="M 832.54 181.77 C 837.64 180.77 842.91 180.93 847.45 183.71 C 854.94 187.85 858.86 196.87 856.91 205.18 C 855.06 213.84 846.88 220.54 838.00 220.54 C 827.44 220.94 817.67 211.72 818.15 201.00 C 817.62 192.14 824.13 184.04 832.54 181.77 Z" fill="#000000" />
<path d="M 831.47 185.58 C 836.04 183.70 841.28 183.96 845.59 186.40 C 852.29 190.08 856.14 198.74 853.28 206.04 C 850.96 213.21 843.50 218.09 835.99 217.24 C 828.27 216.44 821.76 209.81 821.27 202.05 C 820.73 195.01 824.91 188.22 831.47 185.58 Z" fill="#ffffff" />
<path d="M 829.37 189.38 C 833.55 189.26 837.83 189.17 842.00 189.46 C 845.73 189.82 848.03 193.54 847.45 197.11 C 847.05 200.30 844.70 201.45 842.10 202.70 C 843.96 205.90 845.76 209.13 847.64 212.32 C 846.39 212.34 845.15 212.35 843.90 212.37 C 842.05 209.17 840.23 205.95 838.27 202.82 C 836.31 202.83 834.36 202.83 832.41 202.83 C 832.32 206.00 832.31 209.17 832.32 212.34 C 831.31 212.34 830.30 212.34 829.30 212.34 C 829.36 204.69 829.18 197.03 829.37 189.38 Z" fill="#000000" />
<path d="M 832.39 192.59 C 835.95 192.31 839.60 192.51 843.14 192.77 C 844.77 195.67 844.97 196.42 843.14 199.30 C 839.55 199.92 835.96 199.81 832.34 199.76 C 832.33 197.37 832.23 194.97 832.39 192.59 Z" fill="#ffffff" />
<path d="M 370.19 202.50 C 395.40 202.33 420.77 202.48 446.00 202.43 C 460.96 202.29 476.27 202.84 491.02 205.43 C 514.49 209.30 537.31 217.88 555.68 233.30 C 564.37 240.33 571.39 248.86 577.76 257.99 C 588.53 245.01 601.69 233.89 616.05 225.08 C 638.08 211.58 663.28 204.40 689.01 203.01 C 707.66 201.90 726.59 203.36 744.81 207.57 C 772.22 213.84 797.72 227.15 818.83 245.68 C 804.47 261.33 790.11 277.02 775.85 292.75 C 771.24 289.47 766.71 286.12 761.80 283.28 C 742.91 272.08 720.93 266.56 698.99 267.17 C 674.45 267.03 650.13 275.02 632.38 292.37 C 617.43 306.47 607.97 325.71 605.35 346.04 C 603.20 361.26 604.07 377.10 607.66 392.04 C 612.05 410.14 622.01 426.71 636.38 438.62 C 651.18 451.24 669.76 457.94 689.00 459.56 C 700.68 460.52 712.65 460.13 724.19 458.07 C 743.14 454.80 760.84 446.58 775.78 434.51 C 790.05 450.30 804.62 465.86 818.75 481.77 C 812.20 487.34 805.41 492.59 798.16 497.23 C 776.21 511.49 751.02 520.16 725.05 523.19 C 700.82 526.09 675.43 524.82 651.94 517.94 C 625.27 510.26 601.22 494.98 582.35 474.69 C 580.72 472.88 579.32 470.99 577.18 469.73 C 565.00 488.52 547.06 502.81 526.52 511.54 C 503.64 521.33 478.72 524.48 454.01 524.68 C 425.51 524.68 397.02 524.70 368.53 524.67 C 368.53 503.19 368.54 481.71 368.52 460.22 C 396.34 460.49 424.18 460.25 452.00 460.34 C 469.60 460.28 487.18 457.69 502.46 448.43 C 515.04 440.96 524.21 429.30 529.88 415.93 C 536.26 400.76 538.45 384.35 538.88 368.01 C 539.23 348.46 537.14 327.08 528.85 309.14 C 522.80 295.69 512.64 284.27 499.58 277.31 C 485.52 269.74 468.81 267.12 453.00 267.24 C 425.40 267.22 397.80 267.22 370.20 267.25 C 370.09 245.70 370.09 224.05 370.19 202.50 Z" fill="#000000" />
<path d="M 59.67 606.60 C 72.11 606.55 84.56 606.57 97.01 606.59 C 107.23 606.76 116.92 607.83 125.79 613.30 C 134.77 618.59 140.18 628.06 142.49 637.99 C 145.09 649.28 145.17 661.54 142.94 672.89 C 140.92 682.94 136.10 692.58 127.44 698.47 C 118.89 704.37 109.19 705.96 99.00 706.21 C 85.89 706.18 72.79 706.21 59.68 706.19 C 59.65 672.99 59.68 639.80 59.67 606.60 Z" fill="#000000" />
<path d="M 195.67 607.91 C 206.89 605.70 219.18 606.42 229.61 611.36 C 237.36 615.05 244.11 620.96 248.98 628.01 C 256.69 639.05 258.90 653.73 256.40 666.80 C 253.25 685.02 238.47 700.54 220.48 704.75 C 210.38 707.01 199.33 706.71 189.54 703.17 C 176.86 698.55 166.39 688.31 161.37 675.80 C 155.02 659.55 157.02 639.07 168.18 625.31 C 175.04 616.54 184.78 610.32 195.67 607.91 Z" fill="#000000" />
<path d="M 271.78 606.79 C 286.52 606.70 301.26 606.79 316.00 606.74 C 324.01 606.83 332.66 607.92 339.49 612.46 C 345.70 616.38 349.43 623.76 349.78 631.00 C 350.06 637.98 350.21 644.47 346.87 650.83 C 343.81 656.98 338.33 660.62 332.03 662.92 C 340.10 677.41 348.51 691.72 356.69 706.16 C 349.03 706.24 341.37 706.16 333.71 706.21 C 325.75 692.55 317.76 678.91 309.97 665.15 C 303.94 665.02 297.88 665.03 291.85 665.15 C 291.87 678.83 291.85 692.50 291.86 706.18 C 285.48 706.14 279.07 706.31 272.69 706.14 C 271.90 705.78 271.59 705.12 271.76 704.17 C 271.81 671.72 271.78 639.24 271.78 606.79 Z" fill="#000000" />
<path d="M 399.65 607.90 C 407.68 606.29 416.10 606.32 424.10 608.11 C 434.39 610.50 443.66 616.46 450.31 624.64 C 462.50 639.20 464.41 661.51 456.48 678.49 C 450.32 691.52 438.04 701.65 423.93 704.84 C 415.02 706.77 405.58 706.68 396.77 704.27 C 383.09 700.50 371.51 690.09 365.77 677.19 C 358.66 660.39 360.61 638.76 372.61 624.60 C 379.49 616.19 388.99 610.16 399.65 607.90 Z" fill="#000000" />
<path d="M 467.12 606.76 C 474.22 606.73 481.32 606.78 488.41 606.73 C 493.31 624.93 497.76 643.25 502.52 661.47 C 503.58 665.65 504.54 669.83 505.94 673.90 C 506.52 670.57 507.38 667.32 508.28 664.06 C 513.37 644.96 518.36 625.82 523.49 606.73 C 530.39 606.79 537.29 606.72 544.20 606.77 C 549.79 629.12 555.67 651.40 561.17 673.77 C 567.20 651.51 572.55 629.04 578.45 606.74 C 585.56 606.78 592.66 606.72 599.77 606.77 C 590.97 639.92 582.10 673.05 573.28 706.20 C 566.61 706.20 559.94 706.18 553.27 706.21 C 547.13 683.75 540.97 661.27 534.88 638.79 C 534.38 637.05 533.78 635.34 533.18 633.62 C 532.22 639.44 530.25 645.08 528.81 650.81 C 523.67 669.28 518.90 687.88 513.53 706.27 C 506.93 706.11 500.33 706.23 493.73 706.19 C 484.78 673.07 475.98 639.91 467.12 606.76 Z" fill="#000000" />
<path d="M 715.00 607.45 C 725.05 608.92 734.36 613.36 742.01 620.00 C 737.50 624.88 733.23 629.95 728.51 634.64 C 718.12 626.21 702.15 624.01 690.20 630.29 C 682.48 634.43 677.15 642.41 676.10 651.10 C 675.02 658.65 676.26 667.08 680.41 673.59 C 684.36 679.79 690.98 684.08 698.19 685.43 C 708.53 687.60 720.27 685.11 728.44 678.27 C 733.17 682.95 737.59 687.96 742.00 692.95 C 733.78 699.97 723.82 704.65 713.00 705.69 C 701.72 707.18 689.41 705.39 679.59 699.42 C 668.71 692.90 660.39 682.31 657.30 669.94 C 655.25 661.40 655.18 652.47 657.08 643.89 C 660.34 629.61 670.83 617.17 684.09 611.08 C 693.59 606.65 704.75 605.93 715.00 607.45 Z" fill="#000000" />
<path d="M 763.32 606.75 C 770.01 606.76 776.69 606.74 783.38 606.76 C 783.40 633.65 783.37 660.53 783.39 687.41 C 801.04 687.41 818.69 687.39 836.34 687.42 C 836.34 693.68 836.34 699.94 836.35 706.19 C 812.00 706.19 787.66 706.21 763.32 706.19 C 763.32 673.04 763.32 639.90 763.32 606.75 Z" fill="#000000" />
<path d="M 852.47 606.57 C 859.14 606.58 865.82 606.57 872.49 606.58 C 872.51 639.78 872.50 672.99 872.49 706.19 C 865.84 706.22 859.19 706.16 852.53 706.23 C 852.38 673.02 852.50 639.79 852.47 606.57 Z" fill="#000000" />
<path d="M 892.18 606.75 C 894.44 606.75 896.70 606.76 898.96 606.76 C 919.58 627.36 940.19 647.98 960.79 668.59 C 960.89 647.99 960.81 627.38 960.83 606.78 C 967.49 606.73 974.15 606.77 980.81 606.75 C 980.81 639.90 980.83 673.05 980.80 706.19 C 978.45 706.19 976.10 706.20 973.74 706.24 C 953.20 685.89 932.79 665.39 912.37 644.92 C 912.15 665.34 912.35 685.77 912.27 706.18 C 905.57 706.20 898.87 706.21 892.18 706.18 C 892.17 673.04 892.17 639.89 892.18 606.75 Z" fill="#000000" />
<path d="M 1001.38 606.57 C 1008.05 606.59 1014.73 606.56 1021.40 606.59 C 1021.40 639.79 1021.40 672.99 1021.40 706.19 C 1014.72 706.19 1008.04 706.20 1001.36 706.19 C 1001.37 672.98 1001.35 639.78 1001.38 606.57 Z" fill="#000000" />
<path d="M 1095.01 607.36 C 1105.28 608.73 1114.80 613.29 1122.63 620.03 C 1118.12 624.88 1113.67 629.78 1109.23 634.69 C 1098.99 626.60 1084.53 624.24 1072.47 629.43 C 1062.95 633.73 1056.62 643.58 1056.39 654.00 C 1055.97 661.51 1057.44 668.88 1061.97 675.00 C 1066.06 680.51 1072.29 684.31 1079.05 685.47 C 1089.45 687.60 1100.89 684.93 1109.19 678.24 C 1113.73 683.08 1118.10 688.07 1122.63 692.91 C 1110.71 703.35 1094.63 707.76 1078.99 705.73 C 1066.11 704.39 1054.52 697.53 1046.53 687.44 C 1036.40 674.90 1034.09 657.33 1038.13 642.02 C 1041.51 629.65 1050.38 618.87 1061.55 612.67 C 1071.72 606.95 1083.60 605.80 1095.01 607.36 Z" fill="#000000" />
<path d="M 201.15 626.01 C 208.14 624.69 215.87 625.45 222.15 628.96 C 229.15 632.78 234.22 639.85 236.19 647.52 C 239.09 658.27 236.61 670.66 228.76 678.76 C 218.00 690.67 196.26 690.38 185.85 678.13 C 177.22 669.04 175.82 653.98 180.62 642.76 C 184.37 634.28 191.93 627.71 201.15 626.01 Z" fill="#ffffff" />
<path d="M 291.86 625.56 C 301.24 625.49 310.63 625.53 320.01 625.53 C 324.13 625.59 328.30 626.77 330.54 630.50 C 332.94 634.69 331.97 641.07 328.05 644.06 C 325.19 646.23 321.46 646.46 318.00 646.49 C 309.29 646.45 300.58 646.52 291.86 646.44 C 291.85 639.48 291.86 632.52 291.86 625.56 Z" fill="#ffffff" />
<path d="M 404.19 626.18 C 410.96 624.70 418.48 625.27 424.76 628.32 C 432.17 631.95 437.55 638.85 439.86 646.73 C 442.65 657.52 440.99 669.77 433.17 678.13 C 422.61 690.61 400.45 690.61 389.80 678.26 C 378.80 666.46 379.03 645.81 390.18 634.17 C 393.92 630.15 398.84 627.36 404.19 626.18 Z" fill="#ffffff" />
<path d="M 79.72 626.80 C 86.14 626.78 92.57 626.78 99.00 626.78 C 105.82 626.92 112.44 628.63 117.28 633.69 C 122.28 638.86 123.86 646.05 124.33 653.00 C 124.72 660.31 124.04 668.75 120.29 675.22 C 116.47 681.98 109.51 685.31 101.99 686.03 C 94.61 686.54 87.13 686.13 79.73 686.25 C 79.68 666.43 79.72 646.62 79.72 626.80 Z" fill="#ffffff" />
</svg>