<?xml version="1.0" encoding="UTF-8" standalone="no"?>
<!DOCTYPE svg PUBLIC "-//W3C//DTD SVG 1.1//EN" "http://www.w3.org/Graphics/SVG/1.1/DTD/svg11.dtd">
<svg xmlns="http://www.w3.org/2000/svg" version="1.1" viewBox="0 0 900 600" width="900.0pt" height="600.0pt">
<path d="M 0.00 0.00 L 900.00 0.00 L 900.00 600.00 L 0.00 600.00 L 0.00 0.00 Z" fill="#ffffff" />
<path d="M 440.11 32.89 C 444.12 37.35 446.10 43.07 446.42 49.00 C 445.84 56.87 442.24 64.12 436.63 69.63 C 428.89 77.69 417.04 81.58 406.07 81.68 C 406.61 83.78 407.26 85.73 408.52 87.52 C 413.09 94.32 417.14 101.40 421.90 108.04 C 423.05 109.71 423.96 111.28 423.64 113.38 C 422.86 118.17 420.70 122.88 420.54 127.95 C 420.44 134.08 420.10 139.89 421.72 145.88 C 424.45 157.45 430.90 168.19 441.98 173.38 C 452.17 178.74 464.71 174.02 471.95 165.93 C 473.54 164.17 474.49 162.52 477.02 162.14 C 476.69 164.10 477.03 166.16 475.68 167.71 C 471.11 174.13 463.97 179.13 456.28 180.98 C 448.56 182.66 440.85 180.99 434.31 176.63 C 429.33 173.64 426.27 168.48 421.72 165.17 C 410.44 159.98 398.72 155.41 387.30 150.51 C 382.72 148.65 377.86 146.37 372.96 145.58 C 369.03 145.23 364.94 145.27 361.01 145.56 C 357.22 146.14 353.55 148.14 350.63 150.59 C 344.17 156.51 342.30 167.18 347.41 174.55 C 349.93 178.79 354.68 180.70 358.68 183.25 C 358.67 185.50 358.63 187.73 358.54 189.98 C 354.71 189.45 351.48 188.04 348.83 185.18 C 343.24 179.89 341.55 172.42 341.48 164.99 C 341.98 158.01 344.50 150.54 349.40 145.40 C 354.47 139.84 362.45 137.03 369.89 137.58 C 381.08 138.57 389.48 143.63 399.68 147.54 C 405.31 149.69 409.79 152.60 415.86 153.01 C 415.10 144.37 412.52 135.68 414.08 126.94 C 414.33 123.09 415.16 119.48 416.14 115.76 C 417.28 112.52 414.42 109.75 412.92 107.10 C 407.95 99.42 403.01 91.72 397.93 84.11 C 396.82 82.65 395.99 81.05 394.07 80.60 C 387.23 78.85 380.74 76.96 374.56 73.37 C 371.28 71.21 368.24 67.67 367.47 63.73 C 367.14 59.42 366.68 54.90 369.19 51.13 C 371.26 48.08 373.79 45.15 377.73 44.90 C 381.29 45.90 383.55 49.60 385.50 52.48 C 388.96 57.90 392.90 63.04 396.06 68.63 C 392.00 68.52 388.41 69.02 385.58 65.49 C 382.58 61.35 380.19 56.80 377.03 52.75 C 374.46 54.51 371.56 55.89 370.53 59.07 C 370.43 60.67 370.21 62.18 371.42 63.45 C 374.00 66.53 378.71 68.05 382.36 69.47 C 387.89 71.40 394.07 73.76 399.96 73.61 C 404.59 73.62 409.27 73.80 413.87 73.38 C 423.81 71.56 432.68 65.75 438.75 57.74 C 441.21 54.42 442.83 50.17 443.26 46.07 C 442.63 41.55 441.09 37.39 436.97 34.97 C 430.36 30.54 423.59 31.19 416.02 31.59 C 410.95 32.43 405.86 35.57 401.45 38.08 C 401.37 35.55 401.15 32.94 401.46 30.42 C 403.57 27.49 407.63 26.36 410.89 25.21 C 420.77 21.16 433.29 24.84 440.11 32.89 Z" fill="#010101" />
<path d="M 477.27 23.67 C 484.15 22.96 491.48 25.32 497.47 28.60 C 500.76 30.19 499.34 35.16 499.24 38.06 C 494.12 35.34 488.04 31.27 482.07 31.41 C 476.91 31.44 471.94 30.81 467.19 32.99 C 463.06 34.68 459.62 37.63 458.06 41.89 C 456.67 46.48 457.79 50.88 460.14 54.91 C 464.32 62.96 471.79 67.94 479.93 71.39 C 487.09 74.66 496.23 73.55 504.02 73.46 C 510.95 72.36 518.71 69.80 524.97 66.57 C 527.87 65.17 529.33 62.72 530.87 60.03 C 528.91 56.69 527.14 54.83 523.87 52.73 C 521.49 55.54 519.46 58.57 517.54 61.70 C 516.22 63.73 514.67 66.28 512.51 67.47 C 510.27 68.83 507.27 68.51 504.71 68.70 C 508.49 61.63 513.34 55.37 517.70 48.64 C 519.11 46.41 521.17 45.11 523.85 45.31 C 527.10 44.92 529.81 48.52 531.28 50.99 C 535.61 58.01 533.84 68.21 526.89 72.83 C 520.89 76.79 513.67 78.81 506.81 80.53 C 504.36 81.01 503.38 83.24 502.02 85.08 C 498.41 90.70 494.62 96.22 491.13 101.92 C 488.64 101.45 484.89 101.75 485.36 98.11 C 487.94 92.49 493.58 87.85 493.97 81.66 C 488.04 81.60 482.10 80.28 476.56 78.20 C 470.60 75.91 466.04 71.84 461.80 67.19 C 456.36 61.28 453.27 52.61 454.68 44.60 C 455.67 39.30 458.77 34.32 462.52 30.52 C 466.57 26.96 472.08 24.85 477.27 23.67 Z" fill="#010101" />
<path d="M 358.31 76.12 C 358.58 78.61 358.68 81.09 358.70 83.59 C 353.74 86.46 348.66 88.72 346.21 94.29 C 341.72 103.20 346.25 114.84 355.09 119.09 C 360.68 122.16 366.60 121.94 372.76 121.30 C 381.61 119.10 389.91 115.07 398.31 111.57 C 401.57 110.24 404.83 108.94 408.01 107.43 C 409.32 109.56 410.62 111.71 411.82 113.90 C 405.96 116.85 399.79 118.98 393.80 121.63 C 386.94 124.55 380.55 127.57 373.08 128.72 C 365.82 130.59 357.39 127.84 351.55 123.41 C 341.04 114.20 338.38 97.54 345.52 85.51 C 348.58 80.69 352.91 77.78 358.31 76.12 Z" fill="#010101" />
<path d="M 543.07 76.49 C 551.92 78.83 557.85 87.20 558.59 96.13 C 558.83 102.40 558.97 108.26 556.00 114.00 C 551.29 124.87 538.52 131.51 526.98 128.66 C 518.52 127.11 510.11 122.87 502.02 119.72 C 496.17 117.48 490.33 113.93 484.21 113.07 C 484.61 118.23 486.50 122.95 486.60 128.07 C 486.71 132.01 486.72 135.96 486.54 139.90 C 486.38 144.03 484.77 147.97 484.43 152.04 C 484.13 154.64 485.97 156.71 487.18 158.84 C 492.29 166.69 497.38 174.56 502.58 182.35 C 503.88 184.09 504.59 185.88 506.93 186.36 C 514.08 188.21 520.78 189.86 527.04 194.03 C 533.72 198.88 535.87 209.00 531.04 215.87 C 528.68 219.09 526.12 222.56 521.60 221.42 C 518.13 219.30 515.91 215.59 513.80 212.24 C 510.73 207.21 507.00 202.69 504.13 197.53 C 507.63 197.52 511.60 198.42 514.40 200.57 C 517.61 204.40 519.91 209.02 522.84 213.08 C 524.80 212.52 526.63 212.72 528.02 211.03 C 530.26 209.09 529.77 206.62 529.58 203.97 C 528.01 201.70 525.06 200.25 522.64 199.05 C 517.06 196.46 511.00 194.81 504.99 193.53 C 496.71 191.52 487.65 192.57 479.68 195.40 C 471.29 198.92 463.17 204.85 459.28 213.30 C 457.32 217.41 456.69 222.04 458.70 226.25 C 460.63 231.15 466.60 233.65 471.25 235.15 C 475.35 235.89 479.75 235.63 483.89 235.41 C 489.36 234.46 494.69 231.22 499.34 228.29 C 499.33 230.93 500.46 235.46 498.41 237.43 C 493.58 241.09 486.79 242.50 480.89 243.33 C 472.07 242.79 463.66 238.85 458.63 231.39 C 453.60 224.50 453.09 215.37 456.63 207.71 C 462.86 193.23 478.50 184.82 493.94 185.39 C 493.55 183.36 493.54 181.47 492.34 179.71 C 487.53 172.21 482.82 164.64 477.80 157.28 C 477.31 156.34 476.31 155.14 476.55 154.04 C 477.34 149.95 479.36 146.39 479.55 142.06 C 479.96 135.46 480.06 128.71 479.25 122.14 C 477.22 113.08 472.74 103.43 465.33 97.55 C 460.43 93.93 455.35 90.88 449.00 91.35 C 442.97 90.92 437.69 93.39 432.96 96.89 C 429.48 99.41 427.29 103.03 423.47 105.16 C 423.55 103.51 423.09 101.48 424.10 100.09 C 426.70 95.96 430.86 92.58 434.84 89.85 C 439.10 86.78 444.88 85.53 449.98 84.71 C 458.44 85.35 466.81 89.08 472.57 95.41 C 475.05 97.88 476.58 100.82 479.86 102.20 C 488.79 106.04 497.83 109.60 506.74 113.48 C 515.74 116.99 525.07 122.39 535.02 121.64 C 541.18 121.79 547.40 119.10 551.47 114.47 C 554.58 111.32 555.74 106.25 556.31 102.01 C 556.26 97.34 554.00 92.56 550.74 89.25 C 548.33 86.85 544.95 85.76 542.47 83.55 C 541.12 81.77 540.90 77.67 543.07 76.49 Z" fill="#010101" />
<path d="M 447.39 107.33 C 447.73 110.62 448.26 113.71 448.25 116.97 C 448.25 127.84 448.16 138.71 448.30 149.57 C 450.16 150.14 451.83 150.81 453.82 150.48 C 457.42 149.71 459.25 146.85 461.46 144.24 C 462.06 143.48 462.92 142.90 463.60 143.94 C 463.71 147.10 463.56 150.28 463.45 153.45 C 454.74 153.54 446.01 153.60 437.30 153.39 C 438.74 151.59 441.64 149.53 441.41 147.03 C 441.48 137.34 441.43 127.63 441.43 117.94 C 441.65 115.46 439.46 113.20 438.28 111.12 C 441.44 110.08 444.44 108.86 447.39 107.33 Z" fill="#010101" />
<path d="M 549.93 144.07 C 554.49 148.66 557.86 154.76 558.53 161.25 C 558.84 167.81 559.08 173.93 555.83 179.87 C 552.86 185.18 548.19 190.15 541.59 189.64 C 541.73 187.38 540.83 184.51 542.78 182.87 C 545.31 180.94 548.22 179.84 550.50 177.51 C 554.43 174.15 556.11 169.21 556.31 164.17 C 555.47 158.37 553.54 152.91 548.48 149.48 C 541.98 144.45 534.88 145.09 527.14 145.67 C 522.20 146.67 517.48 148.72 512.86 150.67 C 507.71 152.96 502.44 154.97 497.29 157.25 C 495.41 157.96 493.91 159.08 491.83 158.36 C 490.64 156.58 489.79 154.68 488.96 152.71 C 493.88 150.39 498.96 148.44 503.93 146.23 C 511.09 143.40 517.78 139.97 525.08 138.35 C 533.69 136.09 543.15 138.34 549.93 144.07 Z" fill="#010101" />
<path d="M 410.66 164.23 C 412.46 165.14 414.24 166.13 416.01 167.11 C 413.64 171.63 410.78 175.75 408.05 180.04 C 406.95 181.66 406.56 183.47 406.11 185.35 C 417.19 184.96 429.10 188.97 436.67 197.33 C 442.59 202.75 445.80 209.92 446.43 217.87 C 445.97 222.61 444.86 227.18 442.15 231.17 C 437.58 238.63 428.54 242.71 420.08 243.39 C 414.89 242.89 408.10 240.96 403.52 238.43 C 400.18 236.84 401.54 232.81 401.22 229.82 C 402.18 229.11 403.03 229.40 403.96 229.97 C 406.84 231.74 409.77 233.35 413.00 234.42 C 416.97 236.04 421.78 235.56 426.04 235.55 C 429.42 235.57 432.74 234.19 435.66 232.59 C 438.81 230.72 441.50 228.38 442.40 224.67 C 444.15 220.28 442.47 215.58 440.45 211.60 C 434.55 201.31 422.86 194.31 411.18 192.98 C 402.92 191.49 393.98 193.58 386.05 195.95 C 381.28 197.56 375.49 199.35 371.86 202.99 C 367.81 206.50 373.01 213.98 377.67 212.65 C 381.20 209.18 382.86 203.90 386.41 200.50 C 389.10 198.45 392.81 197.51 396.17 197.54 C 394.09 201.76 391.10 205.55 388.53 209.55 C 386.36 212.71 384.42 216.08 382.02 219.06 C 380.26 221.25 377.45 222.24 374.79 221.16 C 371.38 219.64 369.13 215.70 367.71 212.41 C 367.04 209.46 367.17 206.25 367.44 203.26 C 368.11 199.26 371.29 195.81 374.45 193.48 C 381.01 189.07 388.43 188.19 395.38 185.52 C 401.29 179.22 404.58 170.42 410.66 164.23 Z" fill="#010101" />
<path d="M 102.00 256.04 C 102.73 258.01 103.55 259.82 103.45 261.98 C 103.39 335.64 103.46 409.39 103.42 483.05 C 103.54 485.13 103.19 487.66 104.57 489.35 C 107.25 493.37 112.95 495.05 117.39 496.22 C 122.53 496.91 127.86 496.54 133.04 496.58 C 137.89 496.69 142.75 495.10 147.46 493.82 C 164.21 488.88 178.01 475.90 185.05 460.05 C 186.48 457.43 186.22 454.69 189.68 454.13 C 189.66 467.75 189.68 481.38 189.68 495.01 C 189.66 497.91 189.83 500.89 189.45 503.77 L 188.78 504.33 C 185.21 504.68 181.58 504.41 178.00 504.47 C 135.82 504.45 93.62 504.51 51.45 504.44 C 51.43 503.16 51.44 501.88 51.45 500.60 C 57.17 500.52 62.94 499.68 68.43 498.11 C 71.77 497.04 74.65 494.96 74.50 491.08 C 74.55 426.88 74.50 362.25 74.53 298.01 C 74.50 295.05 74.71 291.99 74.26 289.07 C 72.97 287.05 70.37 285.79 68.38 284.56 C 63.73 281.97 59.29 279.23 54.46 277.11 C 54.45 275.98 54.44 274.84 54.45 273.71 C 65.35 273.91 76.52 271.44 86.23 266.45 C 92.04 263.69 96.69 259.54 102.00 256.04 Z" fill="#010101" />
<path d="M 510.38 305.66 C 516.99 309.84 523.73 313.74 530.47 317.72 C 530.55 318.41 530.65 319.10 530.74 319.79 C 513.15 331.30 493.63 340.70 473.22 345.91 C 467.96 347.27 462.81 348.52 457.35 348.65 C 456.26 347.44 455.17 346.23 454.10 345.01 C 461.38 341.87 469.05 339.91 476.16 336.28 C 488.49 329.82 499.97 321.12 506.49 308.52 C 507.50 307.03 508.05 304.55 510.38 305.66 Z" fill="#010101" />
<path d="M 680.51 305.75 C 683.60 305.33 687.70 304.92 690.43 306.71 C 695.00 309.84 698.69 314.03 698.57 319.90 C 698.38 328.05 691.29 334.53 683.23 334.36 C 676.16 333.35 670.92 327.60 669.77 320.67 C 669.92 313.93 673.87 307.75 680.51 305.75 Z" fill="#010101" />
<path d="M 379.31 328.33 C 380.00 328.35 380.70 328.44 381.41 328.59 C 382.49 337.40 380.38 346.92 382.65 355.51 C 397.46 355.39 412.31 355.39 427.12 355.52 C 424.80 362.15 421.16 368.37 417.82 374.53 C 406.06 374.48 394.30 374.47 382.55 374.54 C 382.35 402.69 382.51 430.86 382.46 459.01 C 382.31 465.46 383.57 472.47 386.93 478.05 C 389.70 482.85 395.25 485.64 400.36 487.22 C 404.15 487.91 408.18 487.58 412.02 487.59 C 416.41 487.67 420.82 485.87 424.55 483.68 C 428.24 481.52 430.41 478.21 433.78 475.67 C 433.57 477.42 433.52 479.08 432.67 480.66 C 429.58 486.62 425.83 492.32 420.31 496.28 C 411.28 503.15 399.24 505.77 388.08 505.38 C 379.05 504.57 369.32 500.75 363.56 493.47 C 358.35 486.62 357.33 478.24 356.57 469.93 C 356.42 438.14 356.67 406.33 356.44 374.55 C 349.10 374.43 341.75 374.59 334.42 374.42 C 334.44 373.23 334.46 372.03 334.50 370.84 C 341.23 368.76 347.75 366.76 353.62 362.70 C 362.93 356.76 369.50 348.16 374.48 338.43 C 376.24 335.15 377.41 331.53 379.31 328.33 Z" fill="#010101" />
<path d="M 596.10 327.78 C 597.03 336.66 596.32 345.73 596.58 354.66 C 598.30 355.06 600.00 355.44 601.77 355.46 C 615.20 355.48 628.64 355.34 642.07 355.51 C 639.73 362.13 636.15 368.36 632.80 374.52 C 621.04 374.49 609.28 374.47 597.52 374.53 C 597.31 403.02 597.49 431.52 597.42 460.01 C 597.27 465.83 598.52 471.62 601.15 476.81 C 604.08 482.52 610.10 486.06 616.21 487.40 C 623.74 487.80 630.63 488.39 637.53 484.78 C 642.33 482.71 644.69 478.68 648.74 475.71 C 648.48 480.10 646.26 483.38 643.92 486.94 C 637.32 497.23 625.11 503.76 613.05 504.76 C 608.68 505.49 604.31 505.77 599.93 504.89 C 590.97 503.60 581.68 499.12 576.90 491.13 C 572.87 484.64 572.09 477.38 571.53 469.93 C 571.44 438.13 571.64 406.33 571.43 374.54 C 564.06 374.50 556.69 374.44 549.33 374.56 C 549.34 373.39 549.34 372.21 549.35 371.04 C 555.84 368.64 562.19 367.06 568.00 363.07 C 579.80 355.66 587.42 344.17 592.57 331.45 C 593.34 329.37 594.12 328.74 596.10 327.78 Z" fill="#010101" />
<path d="M 185.49 354.75 C 187.98 354.59 190.47 355.52 192.99 355.44 C 203.99 355.45 215.00 355.46 226.00 355.40 C 227.45 355.42 228.97 355.41 230.40 355.69 C 230.96 359.06 230.70 362.60 230.73 366.00 C 230.72 396.68 230.74 427.37 230.72 458.05 C 230.96 464.97 232.56 472.62 236.63 478.35 C 240.85 483.90 247.92 487.87 254.99 487.64 C 258.10 487.64 261.45 487.80 264.43 486.84 C 274.69 484.00 284.77 478.71 291.71 470.49 C 293.00 467.80 293.01 464.03 293.29 461.04 C 293.30 435.37 293.28 409.67 293.29 384.00 C 293.28 379.17 293.49 374.40 292.75 369.61 C 292.39 367.77 292.78 365.15 291.15 363.94 C 288.78 361.53 285.94 361.34 282.80 360.76 C 277.66 360.25 272.65 359.30 267.47 359.34 C 267.41 358.02 267.35 356.71 267.30 355.40 C 284.36 355.47 301.43 355.47 318.49 355.40 C 320.32 361.65 318.92 367.28 319.28 373.60 C 319.09 412.27 319.15 451.40 319.26 490.09 C 319.26 492.86 320.44 495.80 322.99 497.14 C 328.30 500.01 334.59 500.57 340.51 500.72 C 340.55 501.95 340.57 503.18 340.59 504.41 C 331.38 504.60 322.16 504.38 312.94 504.50 C 306.34 504.55 298.53 501.89 295.51 495.51 C 292.49 490.31 293.48 484.89 293.28 479.11 C 292.21 479.23 291.15 479.39 290.10 479.57 C 287.84 481.83 285.93 484.40 283.62 486.61 C 273.07 498.00 257.29 504.44 241.95 505.42 C 236.05 505.66 230.03 504.46 224.55 502.32 C 219.43 500.16 213.94 496.89 210.92 492.09 C 206.24 485.48 205.13 476.90 204.57 469.01 C 204.53 435.46 204.64 401.75 204.52 368.22 C 204.69 365.20 202.53 363.11 200.03 361.83 C 195.51 359.87 190.82 359.45 185.94 359.40 C 184.14 359.46 183.60 358.94 182.56 357.60 C 181.81 355.68 184.23 355.39 185.49 354.75 Z" fill="#010101" />
<path d="M 500.35 355.03 C 508.02 356.48 515.87 359.23 522.24 363.82 C 527.09 367.34 531.70 370.86 535.12 375.88 C 544.42 387.74 548.46 402.02 549.46 416.88 C 549.51 418.15 548.89 419.08 548.22 420.08 C 545.58 420.66 542.70 420.33 540.02 420.40 C 514.68 420.36 489.34 420.41 464.00 420.38 C 461.55 420.37 459.10 420.43 456.65 420.56 C 457.04 432.84 457.99 444.38 463.20 455.69 C 468.55 468.25 479.75 478.27 493.13 481.40 C 498.37 482.97 504.27 482.63 509.74 482.45 C 521.42 480.99 532.50 475.10 540.05 466.02 C 542.96 462.72 544.88 458.86 548.14 455.85 C 548.39 457.41 548.77 459.11 548.63 460.70 C 543.86 473.68 535.67 485.16 524.85 493.79 C 517.14 499.43 508.64 503.57 499.06 504.73 C 489.41 506.77 478.69 503.97 469.85 499.99 C 460.73 495.83 454.00 488.95 447.46 481.54 C 437.90 469.30 432.87 454.81 430.78 439.53 C 429.00 421.28 432.58 401.86 442.07 386.04 C 449.01 374.25 459.06 364.54 471.53 358.77 C 480.65 354.92 490.54 353.43 500.35 355.03 Z" fill="#010101" />
<path d="M 797.97 354.48 C 807.05 354.31 815.82 358.42 821.67 365.34 C 825.84 369.66 826.29 375.30 826.57 381.00 C 826.59 417.36 826.56 453.72 826.58 490.08 C 826.33 493.21 828.34 496.57 831.26 497.76 C 837.01 500.17 842.97 500.70 849.16 500.61 C 849.74 501.76 850.32 502.91 850.89 504.07 C 841.33 505.03 831.57 504.17 821.96 504.50 C 815.06 504.92 808.15 502.83 803.96 497.06 C 800.76 492.07 800.27 486.69 800.39 480.88 C 799.32 481.16 798.26 481.48 797.21 481.85 C 794.21 484.63 791.60 487.81 788.54 490.55 C 780.93 497.32 771.99 502.63 761.86 504.44 C 757.07 504.67 752.11 504.83 747.34 504.27 C 742.67 503.01 737.77 501.23 734.38 497.63 C 727.38 491.07 724.36 480.86 725.67 471.46 C 727.08 464.08 732.11 457.53 737.45 452.45 C 743.97 446.65 752.02 442.11 759.43 437.55 C 771.61 430.37 783.66 423.01 796.08 416.24 C 798.12 414.91 800.82 414.04 800.47 411.09 C 800.53 402.04 800.50 392.98 800.48 383.92 C 800.75 379.27 797.24 375.72 793.76 373.19 C 786.87 369.20 778.98 369.05 771.26 369.72 C 763.76 371.25 756.64 374.69 751.59 380.56 C 750.81 381.54 749.78 382.73 749.66 384.01 C 749.14 389.17 749.81 394.43 749.34 399.58 C 748.57 406.12 741.25 410.97 734.99 410.66 C 727.36 411.29 720.38 402.34 723.09 395.09 C 725.02 389.39 729.11 385.31 734.22 382.32 C 749.89 373.14 766.24 363.91 783.35 357.75 C 788.03 356.38 793.07 354.34 797.97 354.48 Z" fill="#010101" />
<path d="M 698.15 355.04 C 698.76 360.06 698.50 364.96 698.54 370.00 C 698.56 410.28 698.50 450.84 698.57 491.09 C 698.39 493.69 700.27 495.56 702.21 496.99 C 706.58 499.70 712.35 499.77 717.10 500.94 C 717.87 501.85 718.48 502.83 719.13 503.83 C 717.09 504.33 715.19 504.55 713.09 504.51 C 692.54 504.38 671.98 504.59 651.44 504.40 C 651.45 503.18 651.47 501.95 651.50 500.73 C 656.97 500.57 662.38 499.93 667.44 497.67 C 670.49 496.26 672.74 493.61 672.42 490.08 C 672.42 457.04 672.39 423.97 672.44 390.92 C 672.39 389.35 672.47 387.89 671.65 386.48 C 670.74 384.30 667.79 383.19 665.88 382.00 C 661.00 379.10 655.80 376.74 651.05 373.64 C 654.41 370.20 659.47 370.90 663.85 370.35 C 674.09 368.58 683.91 364.47 692.26 358.26 C 694.13 356.82 695.92 355.83 698.15 355.04 Z" fill="#010101" />
<path d="M 486.25 366.76 C 490.67 365.94 495.47 365.99 499.91 366.61 C 506.98 368.44 512.91 374.74 516.21 381.03 C 521.18 390.79 523.22 401.64 522.44 412.55 C 501.07 412.63 479.69 412.61 458.32 412.56 C 459.04 401.45 463.24 388.92 469.52 379.67 C 473.41 373.57 479.34 368.94 486.25 366.76 Z" fill="#ffffff" />
<path d="M 800.40 420.98 C 800.63 436.34 800.40 451.70 800.53 467.06 C 800.40 469.32 800.89 471.35 799.21 473.15 C 795.28 477.71 790.41 481.37 784.56 483.06 C 779.06 485.01 772.90 484.72 767.08 484.46 C 755.68 482.58 747.55 469.71 751.20 458.62 C 753.23 452.17 757.78 447.93 762.71 443.62 C 772.62 435.62 783.64 429.67 794.53 423.31 C 796.38 422.25 798.36 421.57 800.40 420.98 Z" fill="#ffffff" />
<path d="M 383.45 546.63 C 388.62 549.73 389.83 556.36 386.09 561.10 C 382.62 565.57 376.52 564.33 371.59 564.56 C 371.51 568.61 371.70 572.56 370.97 576.58 C 368.98 576.57 367.00 576.57 365.02 576.57 C 363.90 570.19 364.67 563.47 364.46 557.00 C 364.64 552.61 363.73 548.65 365.68 544.74 C 371.39 544.54 378.18 544.08 383.45 546.63 Z" fill="#010101" />
<path d="M 417.02 544.80 C 419.29 547.67 420.67 551.47 422.12 554.81 C 425.03 561.91 428.83 569.12 430.98 576.46 C 428.75 576.53 426.52 576.57 424.28 576.62 C 423.26 574.56 422.27 572.48 421.24 570.43 C 417.19 570.40 413.13 570.38 409.08 570.50 C 407.99 572.57 406.90 574.65 405.74 576.69 C 403.54 576.56 401.34 576.45 399.14 576.25 C 402.78 567.03 407.04 558.06 410.84 548.91 C 411.89 546.58 414.06 543.50 417.02 544.80 Z" fill="#010101" />
<path d="M 459.03 544.66 C 462.91 545.12 467.46 545.59 470.04 548.92 C 472.15 551.42 471.88 554.52 471.52 557.56 C 470.75 560.15 467.88 562.21 466.10 564.14 C 468.04 568.60 471.00 571.80 472.13 576.47 C 469.81 576.53 467.50 576.56 465.18 576.58 C 462.87 572.80 461.19 568.61 458.73 564.94 C 457.67 564.60 456.60 564.29 455.52 564.02 C 454.81 567.97 456.30 572.75 454.17 576.11 C 452.67 576.99 450.24 576.40 448.53 576.52 C 448.19 566.24 448.27 555.69 448.48 545.41 C 451.70 544.20 455.61 544.62 459.03 544.66 Z" fill="#010101" />
<path d="M 496.60 545.24 C 496.70 555.64 496.89 566.10 496.49 576.50 C 494.56 576.52 492.64 576.54 490.71 576.52 C 490.00 573.37 489.41 570.31 489.70 567.06 C 490.28 559.92 489.19 553.02 490.61 546.25 C 492.29 543.69 494.15 544.72 496.60 545.24 Z" fill="#010101" />
<path d="M 535.16 547.37 C 534.46 549.26 533.57 551.06 532.64 552.84 C 530.16 552.33 527.53 551.30 525.03 551.49 C 522.73 552.31 522.71 554.03 522.28 556.11 C 526.03 557.87 531.31 558.71 534.14 561.82 C 536.33 563.89 535.84 567.85 535.51 570.55 C 534.39 574.18 530.75 576.20 527.27 577.08 C 523.03 578.47 518.71 575.91 514.91 574.27 C 515.89 572.19 517.10 570.26 518.34 568.32 C 521.69 570.10 524.03 570.88 527.91 570.58 C 528.54 569.61 529.17 568.64 529.79 567.67 C 526.49 562.50 519.46 564.28 516.29 558.61 C 513.28 552.78 517.71 547.30 523.14 545.37 C 527.66 543.37 531.12 545.50 535.16 547.37 Z" fill="#010101" />
<path d="M 372.84 551.45 C 374.89 551.34 376.98 551.36 379.00 551.69 C 380.64 553.10 381.48 556.01 379.41 557.42 C 377.29 559.54 373.78 558.24 371.33 557.50 C 371.68 555.20 370.92 553.12 372.84 551.45 Z" fill="#ffffff" />
<path d="M 462.93 551.70 C 464.73 553.55 465.46 555.65 463.16 557.48 C 460.57 557.77 457.90 557.65 455.29 557.64 C 455.40 555.61 455.39 553.61 455.71 551.60 C 458.09 551.37 460.57 551.28 462.93 551.70 Z" fill="#ffffff" />
<path d="M 415.05 556.01 C 416.43 558.36 417.35 560.79 418.06 563.41 C 415.66 563.82 413.98 565.84 412.27 563.15 C 412.36 560.36 413.76 558.36 415.05 556.01 Z" fill="#ffffff" />
</svg>