<svg width="66" height="66" viewBox="0 0 66 66" fill="none" xmlns="http://www.w3.org/2000/svg">
<rect width="66" height="66" fill="url(#paint0_linear)"/>
<path d="M52 45.7032C52 46.375 51.4476 46.9822 50.7902 46.9822H45.8564C44.2115 46.9822 43.0624 47.2099 41.801 46.0348L22.7798 26.2277V45.7032C22.7798 46.375 22.1733 46.9822 21.5152 46.9822H16.5266C15.8685 46.9822 15.3239 46.375 15.3239 45.7032V23.5971L13.1293 20.235C12.8006 19.6757 13.1274 19 13.7854 19H22.8307C24.5851 19 26.2866 19.3402 27.5473 20.5712L44.6537 38.6519V20.2396C44.6537 19.5678 45.1435 19 45.8016 19H50.7902C51.4476 19 52 19.5678 52 20.2396V45.7032Z" fill="white"/>
<defs>
<linearGradient id="paint0_linear" x1="-19.9604" y1="42.7504" x2="40.6286" y2="92.7317" gradientUnits="userSpaceOnUse">
<stop stop-color="#2C2DCC"/>
<stop offset="0.35956" stop-color="#0A5FFF"/>
<stop offset="1" stop-color="#0BC2FD"/>
</linearGradient>
</defs>
</svg>
