<svg width="180" height="17" viewBox="0 0 180 17" fill="none" xmlns="http://www.w3.org/2000/svg">
<path fill-rule="evenodd" clip-rule="evenodd" d="M142.918 0.818578V16.1415C142.918 16.4994 142.63 16.6317 142.303 16.6317C141.977 16.6317 141.689 16.4994 141.689 16.1415V0.818578C141.689 0.460603 142.016 0.328308 142.303 0.328308C142.591 0.328308 142.918 0.460603 142.918 0.818578Z" fill="#1650EF"/>
<path fill-rule="evenodd" clip-rule="evenodd" d="M138.163 0.919745C138.17 0.994745 138.161 1.07029 138.136 1.14146C138.112 1.21264 138.072 1.27787 138.021 1.33291C137.97 1.38795 137.907 1.43157 137.838 1.46094C137.769 1.49031 137.694 1.50478 137.619 1.5034H133.284V16.1415C133.284 16.4994 132.996 16.6317 132.669 16.6317C132.342 16.6317 132.054 16.4994 132.054 16.1415V1.5034H127.72C127.645 1.50478 127.57 1.49031 127.501 1.46094C127.431 1.43157 127.369 1.38795 127.318 1.33291C127.266 1.27787 127.227 1.21264 127.202 1.14146C127.178 1.07029 127.169 0.994745 127.175 0.919745C127.17 0.844632 127.18 0.769227 127.205 0.698159C127.23 0.627091 127.269 0.561861 127.32 0.506474C127.371 0.451087 127.433 0.406712 127.501 0.376074C127.57 0.345436 127.645 0.329181 127.72 0.328308H137.619C137.694 0.329181 137.768 0.345436 137.837 0.376074C137.906 0.406712 137.968 0.451087 138.019 0.506474C138.07 0.561861 138.109 0.627091 138.134 0.698159C138.159 0.769227 138.169 0.844632 138.163 0.919745Z" fill="#1650EF"/>
<path fill-rule="evenodd" clip-rule="evenodd" d="M105.51 0.919552V16.1413C105.51 16.4993 105.222 16.6315 104.895 16.6315C104.568 16.6315 104.28 16.4993 104.28 16.1413V2.61604L98.4982 9.65881C98.4593 9.71822 98.4062 9.767 98.3437 9.80076C98.2812 9.83452 98.2113 9.8522 98.1402 9.8522C98.0692 9.8522 97.9993 9.83452 97.9368 9.80076C97.8743 9.767 97.8212 9.71822 97.7822 9.65881L91.9613 2.51488V16.1413C91.9613 16.4993 91.6733 16.6315 91.3465 16.6315C91.0196 16.6315 90.7317 16.4993 90.7317 16.1413V0.919552C90.7293 0.83924 90.7438 0.759323 90.7742 0.684939C90.8046 0.610556 90.8502 0.543352 90.9081 0.487648C90.966 0.431944 91.0349 0.388973 91.1104 0.361498C91.1859 0.334023 91.2663 0.322652 91.3465 0.328115C91.4895 0.343969 91.6275 0.390393 91.751 0.464242C91.8745 0.53809 91.9807 0.637635 92.0624 0.756129L98.1402 8.15687L104.218 0.779475C104.295 0.665484 104.396 0.568655 104.512 0.495019C104.628 0.421382 104.759 0.372516 104.895 0.351461C104.974 0.342461 105.054 0.350592 105.129 0.375299C105.205 0.400007 105.274 0.440709 105.333 0.49463C105.391 0.548552 105.437 0.614424 105.468 0.687754C105.498 0.761084 105.513 0.840148 105.51 0.919552Z" fill="#1650EF"/>
<path fill-rule="evenodd" clip-rule="evenodd" d="M180 0.817563V16.0782C180 16.1556 179.985 16.2322 179.953 16.303C179.922 16.3739 179.877 16.4374 179.819 16.4895C179.762 16.5416 179.695 16.5811 179.621 16.6054C179.548 16.6297 179.47 16.6384 179.393 16.6307C179.217 16.6505 179.04 16.6174 178.883 16.5356C178.727 16.4537 178.598 16.327 178.514 16.1716L168.95 2.64635V16.1405C168.95 16.4984 168.654 16.6307 168.335 16.6307C168.016 16.6307 167.72 16.4984 167.72 16.1405V0.949859C167.723 0.864335 167.743 0.780258 167.779 0.702513C167.814 0.624768 167.865 0.554904 167.928 0.49698C167.991 0.439056 168.065 0.394227 168.146 0.365097C168.226 0.335967 168.312 0.323117 168.397 0.327293C168.551 0.316636 168.704 0.347941 168.841 0.417855C168.978 0.487769 169.094 0.593657 169.175 0.724179L178.809 14.4829V0.817563C178.809 0.459588 179.128 0.327293 179.424 0.327293C179.72 0.327293 180 0.459588 180 0.817563Z" fill="#1650EF"/>
<path fill-rule="evenodd" clip-rule="evenodd" d="M66.0316 16.6304H63.5102C62.2495 16.6304 61.6658 16.6304 60.9265 15.7822L56.5297 10.7939L51.8059 15.7822C51.0666 16.5604 50.483 16.6304 49.2223 16.6304H47.02C46.0161 16.6304 45.7282 15.8522 46.4752 15.1674L53.3234 8.38145L46.4363 1.66553C45.6581 0.949577 45.9538 0.327012 46.9577 0.327012H49.8682C50.3645 0.296965 50.8613 0.374601 51.3247 0.554596C51.7882 0.734591 52.2072 1.01269 52.553 1.36981L56.5297 5.65773L60.9265 1.36981C61.2815 1.02517 61.702 0.755286 62.1632 0.576161C62.6244 0.397037 63.1168 0.312313 63.6113 0.327012H66.0316C67.0354 0.327012 67.2923 0.949577 66.553 1.66553L59.5491 8.38145L66.553 15.1674C67.3234 15.8834 67.0354 16.6304 66.0316 16.6304Z" fill="#1650EF"/>
<path fill-rule="evenodd" clip-rule="evenodd" d="M22.9345 1.0442V15.8846C22.9353 16.0794 22.863 16.2674 22.7318 16.4115C22.6007 16.5556 22.4203 16.6453 22.2263 16.6628H19.3158C18.343 16.6628 17.666 16.7951 16.9189 16.1103L5.70497 4.53834V15.8846C5.70497 16.091 5.62298 16.2889 5.47704 16.4349C5.3311 16.5808 5.13316 16.6628 4.92676 16.6628H2.07853C1.8845 16.6453 1.70411 16.5556 1.57299 16.4115C1.44188 16.2674 1.36957 16.0794 1.37036 15.8846V3.00528L0.0785365 1.0442C0.0318989 0.975077 0.00496409 0.894562 0.000622835 0.811293C-0.00371842 0.728023 0.0146978 0.645144 0.0538949 0.571549C0.0930921 0.497955 0.15159 0.436423 0.223111 0.393559C0.294632 0.350695 0.376476 0.328116 0.459858 0.328246H5.7361C6.23683 0.290853 6.74002 0.352724 7.21678 0.510308C7.69354 0.667893 8.13448 0.918087 8.5143 1.24653L18.631 11.7757V1.0442C18.6289 0.952214 18.645 0.860727 18.6783 0.77496C18.7116 0.689193 18.7615 0.610827 18.8251 0.54434C18.8887 0.477854 18.9647 0.424548 19.0489 0.38747C19.1331 0.350392 19.2238 0.330267 19.3158 0.328246H22.2574C22.4398 0.340032 22.611 0.420399 22.7366 0.553205C22.8622 0.686011 22.9329 0.861419 22.9345 1.0442Z" fill="#1650EF"/>
<path fill-rule="evenodd" clip-rule="evenodd" d="M117.829 0.00091552C116.148 -0.023797 114.498 0.452284 113.089 1.36852C111.68 2.28476 110.575 3.5997 109.916 5.14585C109.257 6.692 109.073 8.3994 109.387 10.0506C109.701 11.7018 110.5 13.222 111.681 14.4177C112.863 15.6134 114.373 16.4304 116.021 16.7647C117.668 17.0989 119.377 16.9353 120.931 16.2947C122.485 15.6541 123.814 14.5655 124.747 13.1675C125.68 11.7694 126.176 10.1253 126.171 8.44446C126.171 6.22251 125.296 4.09005 123.734 2.50946C122.172 0.928862 120.051 0.0275379 117.829 0.00091552ZM117.829 15.7518C116.88 15.7417 115.942 15.5445 115.069 15.1717C114.197 14.7989 113.406 14.2576 112.742 13.579C112.079 12.9003 111.556 12.0975 111.203 11.2165C110.85 10.3355 110.674 9.3935 110.685 8.44446C110.685 6.54977 111.438 4.73268 112.777 3.39293C114.117 2.05318 115.934 1.30052 117.829 1.30052C119.724 1.30052 121.541 2.05318 122.88 3.39293C124.22 4.73268 124.973 6.54977 124.973 8.44446C124.987 9.39433 124.814 10.3377 124.462 11.2201C124.11 12.1025 123.587 12.9065 122.923 13.5858C122.258 14.2651 121.466 14.8062 120.592 15.1779C119.718 15.5497 118.779 15.7447 117.829 15.7518Z" fill="#1650EF"/>
<path fill-rule="evenodd" clip-rule="evenodd" d="M155.51 0.00091552C153.829 -0.023797 152.179 0.452284 150.77 1.36852C149.361 2.28476 148.256 3.5997 147.597 5.14585C146.938 6.692 146.753 8.3994 147.068 10.0506C147.382 11.7018 148.181 13.222 149.362 14.4177C150.544 15.6134 152.054 16.4304 153.702 16.7647C155.349 17.0989 157.058 16.9353 158.612 16.2947C160.166 15.6541 161.494 14.5655 162.428 13.1675C163.361 11.7694 163.857 10.1253 163.852 8.44446C163.854 6.2219 162.979 4.08827 161.417 2.50723C159.855 0.9262 157.732 0.0255185 155.51 0.00091552ZM155.51 15.7518C154.561 15.7417 153.623 15.5445 152.75 15.1717C151.877 14.7989 151.087 14.2576 150.423 13.579C149.76 12.9003 149.236 12.0975 148.883 11.2165C148.53 10.3355 148.355 9.3935 148.366 8.44446C148.366 7.5063 148.551 6.57733 148.91 5.71059C149.269 4.84385 149.795 4.05631 150.458 3.39293C151.122 2.72956 151.909 2.20334 152.776 1.84432C153.643 1.4853 154.572 1.30052 155.51 1.30052C156.448 1.30052 157.377 1.4853 158.244 1.84432C159.11 2.20334 159.898 2.72956 160.561 3.39293C161.225 4.05631 161.751 4.84385 162.11 5.71059C162.469 6.57733 162.654 7.5063 162.654 8.44446C162.668 9.39433 162.494 10.3377 162.143 11.2201C161.791 12.1025 161.268 12.9065 160.603 13.5858C159.939 14.2651 159.147 14.8062 158.273 15.1779C157.399 15.5497 156.46 15.7447 155.51 15.7518Z" fill="#1650EF"/>
<path fill-rule="evenodd" clip-rule="evenodd" d="M86.5607 0.328308V0.624027C86.5607 1.5034 85.658 3.52674 82.0393 3.52674H79.6113V15.8847C79.6113 16.0911 79.5293 16.289 79.3834 16.4349C79.2375 16.5809 79.0395 16.6629 78.8331 16.6629H75.9538C75.7583 16.6472 75.576 16.5583 75.4433 16.414C75.3106 16.2698 75.2372 16.0807 75.2378 15.8847V3.52674H68.6853V3.16876C68.6853 2.33608 69.6192 0.328308 73.2456 0.328308H86.5607Z" fill="#1650EF"/>
<path fill-rule="evenodd" clip-rule="evenodd" d="M31.7905 3.52674V6.63956H40.0394V6.96641C40.0394 7.81466 39.0978 9.79908 35.4792 9.79908H31.7905V13.3555H43.1134V13.6823C43.1134 14.5617 42.2029 16.6473 38.5842 16.6473H28.1718C27.9778 16.6298 27.7974 16.5401 27.6663 16.396C27.5351 16.2519 27.4628 16.0639 27.4636 15.8691V1.04426C27.4636 0.855717 27.538 0.674782 27.6706 0.540737C27.8032 0.406691 27.9833 0.330357 28.1718 0.328308H43.1134V0.624027C43.1134 1.5034 42.2029 3.52674 38.5842 3.52674H31.7905Z" fill="#1650EF"/>
</svg>
